<svg aria-hidden="true" style="position: absolute; width: 0; height: 0; overflow: hidden;" version="1.1" xmlns="http://www.w3.org/2000/svg" xmlns:xlink="http://www.w3.org/1999/xlink">
<defs>
<symbol id="icon-payment-icon-1" viewBox="0 0 50 32"><path fill="#000" style="fill: var(--color1, #000)" opacity="0.07" d="M45.406 0h-41.514c-2.206 0-3.892 1.686-3.892 3.892v23.351c0 2.206 1.817 3.892 3.892 3.892h41.514c2.206 0 3.892-1.686 3.892-3.892v-23.351c0-2.206-1.817-3.892-3.892-3.892z"></path><path fill="#006fcf" style="fill: var(--color2, #006fcf)" d="M45.406 1.297c1.428 0 2.594 1.168 2.594 2.594v23.351c0 1.428-1.168 2.594-2.594 2.594h-41.514c-1.431-0.004-2.59-1.163-2.594-2.594v-23.352c0-1.428 1.168-2.594 2.594-2.594h41.514z"></path><path fill="#fff" style="fill: var(--color3, #fff)" d="M11.637 13.321l1.004 2.433h-2l0.997-2.433zM32.491 13.422h-3.862v1.073h3.801v1.607h-3.793v1.196h3.862v0.959l2.695-2.913-2.695-3.035-0.007 1.113zM14.247 10.388h5.182l1.152 2.511 1.066-2.519h13.452l1.399 1.545 1.446-1.545h6.178l-4.564 4.997 4.517 4.966h-6.27l-1.399-1.543-1.46 1.545h-21.936l-0.641-1.545h-1.466l-0.642 1.545h-5.073l4.262-9.964h4.45l0.346 0.009zM25.486 11.786h-2.905l-1.945 4.587-2.11-4.587h-2.882v6.24l-2.672-6.24h-2.585l-3.092 7.151h2.018l0.64-1.543h3.369l0.64 1.543h3.529v-5.105l2.272 5.113h1.543l2.257-5.097v5.098h1.892l0.031-7.161v0.001zM37.602 15.377l3.284-3.591h-2.363l-2.078 2.24-2.009-2.24h-7.646v7.158h7.537l2.092-2.255 2.010 2.255h2.431l-3.26-3.567z"></path></symbol>
<symbol id="icon-payment-icon-2" viewBox="0 0 50 32"><path fill="#000" style="fill: var(--color1, #000)" d="M44.951 0l-40.843 0.007c-0.326 0.004-0.642 0.033-0.95 0.085l0.036-0.005c-0.326 0.057-0.618 0.157-0.886 0.295l0.017-0.008c-0.553 0.286-0.992 0.725-1.27 1.262l-0.008 0.016c-0.139 0.273-0.235 0.566-0.287 0.869-0.048 0.272-0.077 0.588-0.081 0.91l-0 0.004c-0.003 0.121-0.005 0.268-0.006 0.416l-0 0.005v23.422c0 0.139 0.002 0.279 0.006 0.42 0.009 0.305 0.027 0.613 0.081 0.914 0.052 0.303 0.148 0.596 0.286 0.869 0.285 0.554 0.725 0.994 1.263 1.271l0.016 0.008c0.278 0.142 0.564 0.233 0.87 0.287 0.3 0.054 0.608 0.073 0.913 0.080 0.269 0.004 0.592 0.007 0.915 0.007l40.427-0.001c0.14 0 0.279-0.002 0.421-0.006 0.304-0.007 0.612-0.026 0.914-0.080 0.302-0.052 0.594-0.148 0.869-0.287 0.55-0.281 0.997-0.727 1.278-1.279 0.143-0.278 0.233-0.562 0.287-0.869 0.047-0.273 0.076-0.589 0.080-0.911l0-0.004c0.005-0.14 0.006-0.279 0.007-0.42v-23.423c0-0.139-0.004-0.279-0.007-0.418-0.004-0.326-0.033-0.643-0.085-0.951l0.005 0.036c-0.056-0.326-0.156-0.618-0.295-0.886l0.008 0.017c-0.285-0.553-0.724-0.993-1.26-1.271l-0.016-0.008c-0.251-0.129-0.543-0.229-0.85-0.283l-0.019-0.003c-0.272-0.047-0.588-0.077-0.91-0.081l-0.004-0c-0.12-0.003-0.268-0.005-0.416-0.006l-0.005-0h-0.498z"></path><path fill="#fff" style="fill: var(--color3, #fff)" d="M44.953 1.038h0.492l0.399 0.007c0.234 0.006 0.505 0.018 0.758 0.064 0.222 0.039 0.406 0.1 0.583 0.191 0.356 0.181 0.644 0.469 0.825 0.825 0.089 0.176 0.149 0.361 0.188 0.582 0.046 0.251 0.058 0.524 0.065 0.758 0.004 0.133 0.005 0.265 0.005 0.4l0.001 0.491v22.918c-0.001 0.132-0.002 0.265-0.006 0.396-0.003 0.271-0.027 0.534-0.069 0.791l0.004-0.030c-0.037 0.218-0.103 0.413-0.195 0.592l0.005-0.011c-0.184 0.357-0.468 0.641-0.814 0.82l-0.011 0.005c-0.167 0.086-0.362 0.152-0.566 0.188l-0.012 0.002c-0.26 0.046-0.544 0.059-0.757 0.064-0.135 0.004-0.268 0.006-0.406 0.006l-0.49 0.001-40.417-0.001c-0.133 0-0.265-0.002-0.398-0.005-0.271-0.004-0.533-0.027-0.789-0.069l0.031 0.004c-0.219-0.037-0.415-0.103-0.596-0.196l0.011 0.005c-0.357-0.183-0.64-0.467-0.817-0.814l-0.005-0.011c-0.087-0.169-0.153-0.364-0.188-0.57l-0.002-0.012c-0.039-0.226-0.062-0.487-0.065-0.754l-0-0.003c-0.003-0.117-0.005-0.256-0.005-0.397v-0.002l-0.001-0.39v-23.018c0-0.133 0.002-0.266 0.006-0.399 0.003-0.271 0.027-0.533 0.069-0.789l-0.004 0.030c0.033-0.203 0.098-0.399 0.19-0.582 0.183-0.357 0.467-0.641 0.814-0.82l0.010-0.005c0.183-0.091 0.379-0.155 0.581-0.19 0.227-0.038 0.49-0.061 0.758-0.064l0.003-0c0.133-0.004 0.266-0.005 0.398-0.006h40.416z"></path><path fill="#000" style="fill: var(--color1, #000)" d="M13.456 10.511c0.412-0.517 0.692-1.209 0.618-1.916-0.603 0.030-1.339 0.398-1.766 0.914-0.382 0.442-0.721 1.163-0.633 1.841 0.677 0.059 1.354-0.338 1.781-0.839zM14.068 11.483c-0.985-0.059-1.822 0.558-2.29 0.558-0.47 0-1.19-0.529-1.969-0.514-1.012 0.015-1.952 0.588-2.465 1.499-1.058 1.822-0.279 4.524 0.748 6.009 0.5 0.734 1.102 1.542 1.895 1.514 0.748-0.030 1.041-0.486 1.952-0.486s1.174 0.485 1.968 0.47c0.821-0.014 1.335-0.734 1.834-1.468 0.574-0.837 0.809-1.646 0.823-1.69-0.015-0.015-1.586-0.618-1.6-2.425-0.015-1.514 1.233-2.233 1.292-2.277-0.705-1.042-1.807-1.161-2.188-1.189zM23.877 9.435c2.139 0 3.628 1.473 3.628 3.62 0 2.154-1.52 3.636-3.681 3.636h-2.368v3.766h-1.711v-11.022h4.132zM21.456 15.254h1.963c1.489 0 2.337-0.801 2.337-2.191 0-1.391-0.848-2.185-2.33-2.185h-1.969v4.375zM27.929 18.172c0-1.413 1.077-2.223 3.062-2.345l2.132-0.13v-0.61c0-0.894-0.588-1.382-1.634-1.382-0.864 0-1.489 0.443-1.62 1.122h-1.542c0.046-1.428 1.39-2.466 3.207-2.466 1.956 0 3.231 1.023 3.231 2.612v5.483h-1.58v-1.321h-0.039c-0.45 0.862-1.444 1.404-2.521 1.404-1.588 0-2.695-0.946-2.695-2.367zM33.122 17.462v-0.619l-1.902 0.123c-1.071 0.068-1.627 0.465-1.627 1.159 0 0.673 0.58 1.108 1.489 1.108 1.161 0 2.039-0.741 2.039-1.772zM36.218 23.403v-1.321c0.107 0.015 0.367 0.031 0.505 0.031 0.756 0 1.183-0.32 1.442-1.146l0.153-0.489-2.895-8.020h1.787l2.017 6.507h0.037l2.017-6.507h1.742l-3.002 8.425c-0.688 1.932-1.474 2.566-3.138 2.566-0.13 0-0.55-0.015-0.665-0.047z"></path></symbol>
<symbol id="icon-payment-icon-3" viewBox="0 0 50 32"><path fill="#000" style="fill: var(--color1, #000)" opacity="0.07" d="M46.090 0h-41.514c-2.206 0-3.892 1.686-3.892 3.892v23.351c0 2.206 1.817 3.892 3.892 3.892h41.514c2.204 0 3.892-1.686 3.892-3.892v-23.351c0-2.206-1.817-3.892-3.892-3.892z"></path><path fill="#fff" style="fill: var(--color3, #fff)" d="M46.090 1.297c1.428 0 2.594 1.168 2.594 2.594v23.351c0 1.428-1.168 2.594-2.594 2.594h-41.514c-1.431-0.004-2.59-1.163-2.594-2.594v-23.352c0-1.428 1.168-2.594 2.594-2.594h41.514z"></path><path fill="#eda024" style="fill: var(--color4, #eda024)" d="M28.706 5.708c-5.449-1.817-11.286 1.038-13.233 6.486-1.945 5.449 1.039 11.286 6.486 13.232 5.45 1.947 11.286-1.038 13.233-6.486 1.817-5.449-1.038-11.286-6.486-13.232z"></path><path fill="#fff" style="fill: var(--color3, #fff)" d="M21.572 10.768l0.389-1.297c0.778 0.258 1.686 0.518 2.465 0.907 0.258-0.649 0.518-1.297 0.647-2.075l1.169 0.389-0.65 1.946 1.038 0.389 0.649-1.945 1.169 0.389c-0.261 0.649-0.521 1.297-0.65 2.075l0.519 0.258c0.389 0.261 0.778 0.521 1.167 0.91 0.39 0.389 0.519 0.778 0.649 1.297 0 0.389 0 0.778-0.258 1.167-0.26 0.649-0.649 1.039-1.428 1.169h-0.258c0.258 0.128 0.389 0.258 0.517 0.517 0.519 0.519 0.65 1.039 0.519 1.817 0 0.13 0 0.26-0.129 0.39 0 0.129 0 0.129-0.129 0.258-0.13 0.26-0.26 0.39-0.26 0.649-0.389 0.649-1.038 1.169-1.946 1.169-0.649 0-1.297 0-1.817-0.13l-0.518-0.13c-0.26 0.649-0.519 1.297-0.649 2.076l-1.169-0.39c0.261-0.647 0.519-1.296 0.65-1.945l-1.038-0.39c-0.26 0.649-0.519 1.297-0.649 1.946l-1.168-0.389c0.258-0.649 0.519-1.297 0.649-2.075l-2.465-0.779 0.779-1.428c0.258 0.13 0.649 0.261 0.908 0.261 0.258 0.129 0.518 0 0.649-0.26l1.815-5.449v-0.13c0-0.389-0.129-0.649-0.518-0.649 0-0.258-0.26-0.389-0.649-0.518zM23.127 18.551c0.649 0.258 1.169 0.389 1.686 0.519 0.39 0.129 0.65 0.129 1.039 0.129 0.258 0 0.389 0 0.649-0.129 0.649-0.39 0.778-1.297 0.258-1.817l-0.778-0.649c-0.389-0.258-0.908-0.389-1.428-0.519-0.128 0-0.388-0.129-0.517-0.258l-0.91 2.724zM24.426 14.529c0.389 0.13 0.647 0.26 0.907 0.26 0.39 0.13 0.779 0.26 1.168 0.13 0.519 0 0.908-0.13 1.038-0.649 0.13-0.39 0.13-0.779 0-1.039-0.129-0.258-0.389-0.389-0.649-0.518-0.389-0.26-0.778-0.389-1.297-0.519l-0.389-0.129c-0.13 0.907-0.519 1.686-0.779 2.464z"></path></symbol>
<symbol id="icon-payment-icon-4" viewBox="0 0 50 32"><path fill="#000" style="fill: var(--color1, #000)" opacity="0.07" d="M46.431 0h-41.514c-2.148 0.001-3.889 1.743-3.889 3.892v0 23.351c0 2.149 1.742 3.892 3.892 3.892v0h41.514c2.149 0 3.892-1.742 3.892-3.892v0-23.351c0-2.149-1.742-3.892-3.892-3.892-0.001 0-0.002 0-0.003 0h0z"></path><path fill="#fff" style="fill: var(--color3, #fff)" d="M46.431 1.297c1.433 0 2.594 1.162 2.594 2.594v0 23.351c0 1.433-1.162 2.594-2.594 2.594v0h-41.514c-1.432-0.001-2.593-1.162-2.593-2.594v0-23.351c0-1.433 1.162-2.594 2.594-2.594h41.514z"></path><path fill="#8dc451" style="fill: var(--color5, #8dc451)" d="M25.674 25.946c5.732 0 10.378-4.647 10.378-10.378s-4.647-10.378-10.378-10.378v0c-5.732 0-10.378 4.647-10.378 10.378s4.647 10.378 10.378 10.378v0z"></path><path fill="#fff" style="fill: var(--color3, #fff)" d="M28.554 14.828c0.225-0.449 0.298-0.96 0.209-1.452-0.025-1.276-1.066-2.301-2.345-2.301-0.157 0-0.311 0.015-0.46 0.045l0.015-0.002-0.298-2.037c-0.006-0.053-0.043-0.096-0.091-0.111l-0.001-0c-0.012-0.004-0.026-0.007-0.041-0.007-0.003 0-0.007 0-0.010 0l0-0-0.752 0.117c-0.055 0.016-0.095 0.065-0.095 0.125 0 0.011 0.001 0.022 0.004 0.033l-0-0.001 0.35 2.049-0.934 0.169-0.35-1.998c-0.005-0.053-0.042-0.097-0.091-0.112l-0.001-0c-0.011-0.004-0.024-0.006-0.038-0.006-0.005 0-0.009 0-0.013 0.001l0.001-0-0.702 0.13c-0.053 0.017-0.091 0.066-0.091 0.123 0 0.006 0 0.013 0.001 0.019l-0-0.001 0.363 2.063-1.972 0.351c-0.055 0.016-0.095 0.066-0.095 0.126 0 0.011 0.001 0.022 0.004 0.032l-0-0.001 0.129 0.791c0.007 0.066 0.063 0.116 0.13 0.116 0.005 0 0.009-0 0.014-0.001l-0.001 0h0.117c0.033-0.004 0.071-0.006 0.109-0.006 0.524 0 0.956 0.399 1.007 0.91l0 0.004 0.752 4.165c0.016 0.069 0.026 0.148 0.026 0.23 0 0.447-0.283 0.828-0.679 0.974l-0.007 0.002c-0.051 0.017-0.087 0.062-0.091 0.117l-0 0v0.83c-0.007 0.017-0.011 0.037-0.011 0.058s0.004 0.041 0.012 0.059l-0-0.001c0.015 0.008 0.033 0.012 0.052 0.012s0.037-0.004 0.052-0.012l-0.001 0 1.946-0.337 0.351 1.998c0.012 0.061 0.065 0.105 0.128 0.105 0.005 0 0.010-0 0.015-0.001l-0.001 0 0.7-0.13c0.055-0.016 0.095-0.066 0.095-0.125 0-0.011-0.001-0.021-0.004-0.031l0 0.001-0.286-1.946 0.921-0.169 0.351 1.998c0.012 0.060 0.064 0.104 0.127 0.104 0.006 0 0.011-0 0.017-0.001l-0.001 0 0.7-0.117c0.055-0.016 0.095-0.066 0.095-0.125 0-0.011-0.001-0.021-0.004-0.031l0 0.001-0.351-1.998 0.468-0.079c1.13-0.176 1.984-1.142 1.984-2.307 0-0.275-0.048-0.539-0.135-0.783l0.005 0.016c-0.128-0.749-0.62-1.361-1.283-1.655l-0.014-0.006v0.012zM24.378 13.051l1.388-0.246c0.014-0.001 0.030-0.001 0.047-0.001 0.602 0 1.089 0.488 1.089 1.089 0 0.484-0.316 0.895-0.753 1.036l-0.008 0.002-1.388 0.246-0.375-2.127zM27.18 18.046l-1.856 0.324-0.377-2.127 1.856-0.325c0.016-0.001 0.034-0.001 0.053-0.001 0.602 0 1.089 0.488 1.089 1.089 0 0.486-0.318 0.898-0.758 1.038l-0.008 0.002z"></path></symbol>
<symbol id="icon-payment-icon-5" viewBox="0 0 50 32"><path fill="#000" style="fill: var(--color1, #000)" opacity="0.07" d="M45.543 0h-41.514c-2.206 0-3.892 1.686-3.892 3.892v23.351c0 2.206 1.815 3.892 3.892 3.892h41.514c2.204 0 3.892-1.686 3.892-3.892v-23.351c0-2.206-1.817-3.892-3.892-3.892z"></path><path fill="#fff" style="fill: var(--color3, #fff)" d="M45.543 1.297c1.428 0 2.594 1.168 2.594 2.594v23.351c0 1.428-1.168 2.594-2.594 2.594h-41.514c-1.431-0.004-2.59-1.163-2.594-2.594v-23.352c0-1.428 1.168-2.594 2.594-2.594h41.514z"></path><path fill="#f5ac37" style="fill: var(--color6, #f5ac37)" d="M24.788 26.206c5.875 0 10.638-4.763 10.638-10.638s-4.763-10.638-10.638-10.638v0c-5.875 0-10.638 4.763-10.638 10.638s4.763 10.638 10.638 10.638v0z"></path><path fill="#fff" style="fill: var(--color3, #fff)" d="M19.6 21.356v-3.602c0-0.086 0-0.098-0.103-0.098h-1.415c-0.076 0-0.111 0-0.111-0.105v-1.237h1.511c0.086 0 0.117 0 0.117-0.112v-1.225c0-0.078 0-0.098-0.103-0.098h-1.415c-0.078 0-0.11 0-0.11-0.102v-1.148c0-0.071 0-0.091 0.103-0.091h1.402c0.098 0 0.124 0 0.124-0.123v-3.514c0-0.103 0-0.129 0.129-0.129h4.887c0.354 0.012 0.708 0.052 1.056 0.117 0.768 0.145 1.452 0.408 2.069 0.772l-0.030-0.016c0.418 0.246 0.804 0.544 1.147 0.886 0.257 0.268 0.49 0.559 0.697 0.866 0.206 0.314 0.375 0.649 0.508 0.998 0.015 0.079 0.084 0.138 0.166 0.138 0.010 0 0.020-0.001 0.030-0.003l-0.001 0h1.168c0.149 0 0.149 0 0.155 0.144v1.068c0 0.105-0.038 0.13-0.143 0.13h-0.898c-0.091 0-0.117 0-0.111 0.118 0.034 0.396 0.034 0.796 0 1.194 0 0.11 0 0.123 0.123 0.123h1.029c0.046 0.058 0 0.116 0 0.175 0.007 0.075 0.007 0.151 0 0.228v0.789c0 0.111-0.032 0.143-0.129 0.143h-1.233c-0.008-0.002-0.018-0.002-0.028-0.002-0.077 0-0.142 0.054-0.159 0.126l-0 0.001c-0.309 0.788-0.775 1.456-1.364 1.99l-0.004 0.004c-0.222 0.201-0.455 0.388-0.697 0.561-0.261 0.148-0.516 0.305-0.783 0.43-0.492 0.222-1.008 0.385-1.537 0.489-0.421 0.079-0.906 0.124-1.402 0.124-0.044 0-0.087-0-0.131-0.001l0.007 0h-4.521v-0.006zM28.598 17.668c-0.050-0.006-0.108-0.010-0.166-0.010s-0.116 0.004-0.173 0.010l0.007-0.001h-7.225c-0.1 0-0.13 0-0.13 0.129v2.265c0 0.103 0 0.129 0.129 0.129h3.335c0.16 0.012 0.32 0.001 0.476-0.032 0.518-0.038 0.999-0.15 1.448-0.324l-0.034 0.012c0.183-0.064 0.34-0.139 0.488-0.228l-0.012 0.007h0.046c0.785-0.414 1.408-1.043 1.805-1.808l0.011-0.024s0.046-0.103-0.006-0.129v0.005zM28.598 13.524c0.005-0.013 0.009-0.029 0.009-0.045s-0.003-0.032-0.009-0.046l0 0.001c-0.072-0.158-0.15-0.293-0.239-0.419l0.005 0.008c-0.144-0.229-0.304-0.428-0.483-0.607l-0-0c-0.086-0.111-0.186-0.209-0.298-0.293-0.811-0.693-1.871-1.114-3.030-1.114-0.012 0-0.024 0-0.036 0h-3.497c-0.098 0-0.111 0.038-0.111 0.123v2.314c0 0.098 0 0.123 0.123 0.123h7.52s0.065-0.012 0.078-0.052l-0.032 0.006zM24.949 16.314h3.962c0.085 0 0.123 0 0.129-0.112 0.016-0.181 0.024-0.392 0.024-0.606s-0.009-0.424-0.026-0.633l0.002 0.027c0-0.079-0.038-0.111-0.123-0.111h-7.883c-0.098 0-0.124 0.032-0.124 0.123v1.154c0 0.149 0 0.149 0.155 0.149l3.884 0.007z"></path></symbol>
<symbol id="icon-payment-icon-6" viewBox="0 0 50 32"><path fill="#000" style="fill: var(--color1, #000)" opacity="0.07" d="M45.884 0h-41.514c-2.204 0-3.89 1.686-3.89 3.892v23.351c0 2.206 1.815 3.892 3.892 3.892h41.514c2.204 0 3.892-1.686 3.892-3.892v-23.351c0-2.206-1.817-3.892-3.894-3.892z"></path><path fill="#fff" style="fill: var(--color3, #fff)" d="M45.886 1.297c1.426 0 2.594 1.168 2.594 2.594v23.351c0 1.428-1.168 2.594-2.594 2.594h-41.514c-1.431-0.004-2.59-1.163-2.594-2.594v-23.352c0-1.428 1.167-2.594 2.594-2.594h41.514z"></path><path fill="#3086c8" style="fill: var(--color7, #3086c8)" d="M16.049 15.568v4.8c0 0.389-0.261 0.389-0.65 0.258-2.465-1.038-3.892-4.281-2.983-7.004 0.518-1.428 1.557-2.594 2.983-3.114 0.519-0.258 0.649-0.13 0.649 0.258v4.8zM18.642 15.568v-4.8c0-0.39 0-0.39 0.389-0.26 2.725 1.038 4.151 4.281 3.114 7.006-0.518 1.428-1.557 2.594-2.983 3.114-0.519 0.258-0.519 0.129-0.519-0.26v-4.8zM27.984 6.486h-10.639c4.93 0 8.822 4.022 8.822 9.082 0 5.058-3.892 9.081-8.822 9.081h10.638c4.93 0 8.822-4.022 8.822-9.081 0-5.060-3.892-9.082-8.822-9.082z"></path></symbol>
<symbol id="icon-payment-icon-7" viewBox="0 0 50 32"><path fill="#000" style="fill: var(--color1, #000)" opacity="0.07" d="M46.228 0h-41.514c-2.206 0-3.892 1.686-3.892 3.892v23.351c0 2.206 1.815 3.892 3.892 3.892h41.514c2.204 0 3.89-1.686 3.89-3.892v-23.351c0-2.206-1.815-3.892-3.89-3.892z"></path><path fill="#fff" style="fill: var(--color3, #fff)" d="M46.228 1.297c1.426 0 2.593 1.168 2.593 2.594v23.351c0 1.428-1.167 2.594-2.594 2.594h-41.513c-1.431-0.004-2.59-1.163-2.594-2.594v-23.352c0-1.428 1.169-2.594 2.596-2.594h41.514z"></path><path fill="#231f20" style="fill: var(--color8, #231f20)" d="M5.452 9.289h-2.036v7.135h2.036c1.077 0 1.856-0.258 2.543-0.817 0.791-0.656 1.292-1.638 1.297-2.736v-0.001c-0.012-2.114-1.583-3.58-3.84-3.58zM7.087 14.66c-0.441 0.389-0.998 0.571-1.906 0.571h-0.377v-4.722h0.377c0.895 0 1.44 0.155 1.908 0.571 0.48 0.428 0.764 1.089 0.764 1.777 0 0.687-0.286 1.375-0.766 1.803zM9.929 9.289h1.388v7.135h-1.388v-7.135zM14.716 12.026c-0.831-0.311-1.078-0.518-1.078-0.895 0-0.455 0.442-0.791 1.039-0.791 0.415 0 0.764 0.169 1.115 0.583l0.726-0.948c-0.551-0.491-1.281-0.79-2.082-0.79-0.007 0-0.013 0-0.020 0h0.001c-1.259 0-2.231 0.882-2.231 2.049 0 0.986 0.454 1.492 1.751 1.959 0.545 0.194 0.817 0.324 0.96 0.401 0.25 0.155 0.415 0.428 0.415 0.74v0c0 0.585-0.454 1.012-1.077 1.012-0.661 0-1.194-0.337-1.518-0.946l-0.895 0.869c0.635 0.948 1.414 1.362 2.464 1.362 1.44 0 2.465-0.96 2.465-2.348 0.026-1.154-0.454-1.674-2.037-2.257zM17.206 12.869c0 2.102 1.648 3.723 3.762 3.723 0.597 0 1.115-0.117 1.738-0.415v-1.634c-0.558 0.558-1.051 0.778-1.674 0.778-1.401 0-2.4-1.012-2.4-2.464 0-1.376 1.025-2.452 2.336-2.452 0.661 0 1.167 0.234 1.738 0.804v-1.633c-0.609-0.311-1.115-0.441-1.712-0.441-2.089 0-3.788 1.66-3.788 3.735zM33.76 14.089l-1.908-4.8h-1.518l3.023 7.317h0.752l3.074-7.317h-1.504l-1.92 4.8zM37.82 16.423h3.943v-1.206h-2.555v-1.92h2.464v-1.206h-2.464v-1.583h2.555v-1.218h-3.942v7.134zM47.278 11.403c0-1.335-0.921-2.101-2.529-2.101h-2.063v7.135h1.387v-2.868h0.182l1.92 2.868h1.712l-2.244-3.010c1.051-0.22 1.634-0.933 1.634-2.023zM44.475 12.585h-0.402v-2.166h0.428c0.87 0 1.337 0.362 1.337 1.062 0 0.714-0.468 1.103-1.362 1.103z"></path><path fill="#000" style="fill: var(--color1, #000)" d="M26.975 16.683c0.020 0 0.044 0.001 0.068 0.001 2.1 0 3.803-1.703 3.803-3.803s-1.703-3.803-3.803-3.803c-0.024 0-0.048 0-0.072 0.001l0.004-0c-2.1 0-3.803 1.703-3.803 3.803s1.703 3.803 3.803 3.803v0z"></path><path fill="#000" style="fill: var(--color1, #000)" opacity="0.65" d="M26.975 16.683c0.020 0 0.044 0.001 0.068 0.001 2.1 0 3.803-1.703 3.803-3.803s-1.703-3.803-3.803-3.803c-0.024 0-0.048 0-0.072 0.001l0.004-0c-2.1 0-3.803 1.703-3.803 3.803s1.703 3.803 3.803 3.803v0z"></path><path fill="#231f20" style="fill: var(--color8, #231f20)" d="M48.262 9.737c0-0.129-0.090-0.193-0.233-0.193h-0.207v0.622h0.155v-0.246l0.181 0.246h0.182l-0.208-0.258c0.078-0.014 0.129-0.079 0.129-0.17zM48.004 9.828h-0.026v-0.169h0.026c0.078 0 0.117 0.026 0.117 0.078 0 0.065-0.039 0.091-0.117 0.091z"></path><path fill="#231f20" style="fill: var(--color8, #231f20)" d="M48.055 9.31c-0.298 0-0.545 0.246-0.545 0.544 0 0.299 0.246 0.545 0.545 0.545s0.545-0.246 0.545-0.545c0-0.298-0.246-0.544-0.545-0.544zM48.055 10.308c-0.244-0.004-0.441-0.203-0.441-0.448 0-0.002 0-0.004 0-0.007v0c0-0.246 0.194-0.453 0.441-0.453 0.234 0 0.428 0.207 0.428 0.453s-0.194 0.455-0.428 0.455z"></path><path fill="#f48120" style="fill: var(--color9, #f48120)" d="M48.822 16.844s-12.857 8.937-36.357 12.993h33.76c0 0 0 0 0 0 1.426 0 2.583-1.15 2.594-2.572v-0.001l0.032-3.918-0.030-6.501v-0.001z"></path></symbol>
<symbol id="icon-payment-icon-8" viewBox="0 0 50 32"><path fill="#fff" style="fill: var(--color3, #fff)" d="M47.499 31.066h-43.013c-1.383-0.005-2.503-1.125-2.508-2.508v-24.871c0.004-1.383 1.124-2.504 2.507-2.51h43.016c1.384 0.005 2.504 1.126 2.508 2.509v24.871c-0.005 1.383-1.125 2.503-2.508 2.508h-0z"></path><path fill="#a7a8ab" style="fill: var(--color10, #a7a8ab)" opacity="0.25" d="M47.481 31.687h-42.977c-1.743 0-3.159-1.397-3.159-3.114v-24.906c0-1.717 1.415-3.114 3.159-3.114h42.977c1.743 0 3.159 1.397 3.159 3.114v24.908c0 1.716-1.415 3.114-3.159 3.114zM4.503 1.798c-1.046 0-1.895 0.838-1.895 1.868v24.908c0 1.030 0.849 1.868 1.895 1.868h42.977c1.046 0 1.895-0.838 1.895-1.868v-24.908c0-1.030-0.849-1.868-1.895-1.868h-42.977z"></path><path fill="#cba747" style="fill: var(--color11, #cba747)" d="M25.814 25.516c5.495 0 9.949-4.454 9.949-9.949s-4.454-9.949-9.949-9.949v0c-5.495 0-9.949 4.454-9.949 9.949s4.454 9.949 9.949 9.949v0z"></path><path fill="#fff" style="fill: var(--color3, #fff)" d="M31.538 14.276c-0.382-2.274-2.204-3.435-3.126-3.734-0.923-0.294-7.023-0.172-7.023-0.172-0.138 0.169-0.054 2.462-0.054 2.462l1.391-0.007 0.026 1.762h-1.199c-0 0-0 0-0.001 0-0.038 0-0.072 0.015-0.096 0.039l0-0c-0.024 0.025-0.039 0.059-0.039 0.096 0 0.001 0 0.002 0 0.003v-0 1.738c0 0.076 0.062 0.138 0.137 0.138h1.218c0.004 0.938-0.007 1.689-0.046 1.703-0.103 0.041-1.232-0.058-1.344 0.018-0.107 0.074-0.049 1.433-0.049 1.953-0.004 0.519 0.138 0.498 0.138 0.498 6.466-0.165 6.31 0.428 8.133-0.665 1.822-1.090 2.325-3.557 1.936-5.834zM24.654 18.295v-1.717l2.076 0.022c0 0 0.001 0 0.001 0 0.077 0 0.139-0.061 0.14-0.138v-1.739c-0.002-0.076-0.064-0.137-0.14-0.137-0 0-0.001 0-0.001 0h0l-2.076 0.004v-1.92s4.756-0.526 4.756 3.040c0 3.428-4.756 2.586-4.756 2.586z"></path></symbol>
<symbol id="icon-payment-icon-9" viewBox="0 0 49 32"><path fill="#000" style="fill: var(--color1, #000)" opacity="0.07" d="M43.724 1.137h-39.976c-2.070 0-3.748 1.678-3.748 3.748v0 22.487c0 2.070 1.678 3.748 3.748 3.748v0h39.976c2.070 0 3.748-1.678 3.748-3.748v0-22.487c-0.001-2.069-1.678-3.746-3.748-3.746v0z"></path><path fill="#fff" style="fill: var(--color3, #fff)" d="M43.724 2.386h-39.976c-1.38 0-2.498 1.119-2.498 2.498v0 22.487c0 1.38 1.119 2.498 2.498 2.498h39.976c1.38 0 2.498-1.119 2.498-2.498v-22.487c0-1.38-1.119-2.498-2.498-2.498v0z"></path><path fill="#343434" style="fill: var(--color12, #343434)" d="M23.307 6.446l-0.127 0.431v12.536l0.127 0.126 5.819-3.439-5.819-9.653z"></path><path fill="#8c8c8c" style="fill: var(--color13, #8c8c8c)" d="M23.308 6.446l-5.819 9.655 5.819 3.439v-13.093z"></path><path fill="#3c3c3b" style="fill: var(--color14, #3c3c3b)" d="M23.308 20.641l-0.071 0.088v4.466l0.071 0.209 5.822-8.199-5.822 3.437z"></path><path fill="#8c8c8c" style="fill: var(--color13, #8c8c8c)" d="M23.308 25.403v-4.762l-5.819-3.437 5.819 8.199z"></path><path fill="#141414" style="fill: var(--color15, #141414)" d="M23.307 19.539l5.818-3.439-5.818-2.644v6.084z"></path><path fill="#393939" style="fill: var(--color16, #393939)" d="M17.489 16.1l5.819 3.439v-6.084l-5.819 2.644z"></path></symbol>
<symbol id="icon-payment-icon-10" viewBox="0 0 49 32"><path fill="#000" style="fill: var(--color1, #000)" opacity="0.07" d="M44.053 1.137h-39.976c-2.124 0-3.748 1.624-3.748 3.748v22.487c0 2.124 1.749 3.748 3.748 3.748h39.976c2.124 0 3.748-1.624 3.748-3.748v-22.487c0-2.123-1.749-3.746-3.748-3.746z"></path><path fill="#fff" style="fill: var(--color3, #fff)" d="M44.053 2.386c1.374 0 2.498 1.125 2.498 2.498v22.487c0 1.375-1.126 2.498-2.5 2.498h-39.975c-1.378-0.005-2.493-1.121-2.497-2.498v-22.487c0-1.375 1.124-2.498 2.498-2.498h39.976z"></path><path fill="#006ebc" style="fill: var(--color17, #006ebc)" d="M14.695 7.384h4.373v14.364c0 0 0 0.001 0 0.001 0 1.725-1.398 3.123-3.123 3.123-0 0-0.001 0-0.001 0h-4.373v-14.367c0.001-1.724 1.399-3.122 3.123-3.122 0.001 0 0.002 0 0.002 0h-0z"></path><path fill="#f00036" style="fill: var(--color18, #f00036)" d="M23.441 7.384h4.373v14.364c0 0 0 0.001 0 0.001 0 1.725-1.398 3.123-3.123 3.123-0 0-0.001 0-0.001 0h-4.373v-14.367c0-1.725 1.398-3.123 3.123-3.123 0 0 0.001 0 0.001 0h-0z"></path><path fill="#2ab419" style="fill: var(--color19, #2ab419)" d="M32.185 7.384h4.373v14.364c0 0 0 0.001 0 0.001 0 1.725-1.398 3.123-3.123 3.123-0 0-0.001 0-0.001 0h-4.373v-14.367c0-1.725 1.398-3.123 3.123-3.123 0 0 0.001 0 0.001 0h-0z"></path><path fill="#fff" style="fill: var(--color3, #fff)" d="M13.765 19.251c-1.325 0-2.651-0.379-3.319-1.233l0.974-0.845c0.085 1.415 4.429 1.549 4.429-0.237v-3.931h2.252v3.931c0 0.909-0.718 1.651-1.966 2.039-0.581 0.18-1.705 0.276-2.37 0.276zM23.903 19.251c-0.841 0-1.734-0.134-2.453-0.457-1.185-0.531-1.64-1.506-1.625-2.747 0.014-1.267 0.545-2.226 1.833-2.705 1.647-0.612 4.177-0.326 4.904 0.338v1.214c-0.713-0.651-2.445-1.121-3.646-0.575-0.617 0.283-0.921 1.146-0.929 1.81-0.008 0.699 0.306 1.564 0.929 1.87 1.19 0.583 2.985 0.050 3.646-0.551v1.261c-0.447 0.32-1.564 0.543-2.66 0.543zM34.746 16.019c0.462-0.294 0.727-0.709 0.727-1.256 0-0.546-0.145-0.857-0.435-1.173-0.257-0.257-0.724-0.584-1.547-0.584h-4.43v6.246h4.43c0.87 0 1.371-0.288 1.643-0.519 0.354-0.312 0.533-0.661 0.533-1.198 0-0.539-0.194-1.135-0.921-1.515zM32.364 15.668h-1.784v-1.804h1.868c1.195 0 1.179 1.804-0.083 1.804zM32.724 18.362h-2.144v-1.888h2.144c1.233 0 1.353 1.889 0 1.889z"></path></symbol>
<symbol id="icon-payment-icon-11" viewBox="0 0 49 32"><path fill="#fff" style="fill: var(--color3, #fff)" d="M45.132 31.118h-41.474c-1.624 0-2.999-1.375-2.999-2.999v-23.983c0-1.624 1.375-2.999 2.999-2.999h41.474c1.624 0 2.999 1.375 2.999 2.999v23.986c0 1.624-1.375 2.999-2.999 2.999z"></path><path fill="#a8aaad" style="fill: var(--color20, #a8aaad)" opacity="0.25" d="M45.132 31.118h-41.474c-1.624 0-2.999-1.375-2.999-2.999v-23.983c0-1.624 1.375-2.999 2.999-2.999h41.35c1.748 0 3.123 1.375 3.123 2.999v23.986c0 1.624-1.375 2.999-2.999 2.999zM3.657 2.386c-1 0-1.749 0.75-1.749 1.749v23.986c0 0.999 0.749 1.748 1.749 1.748h41.35c0.999 0 1.873-0.749 1.873-1.749v-23.983c0-0.999-0.749-1.749-1.748-1.749h-41.474z"></path><path fill="#58595b" style="fill: var(--color21, #58595b)" d="M24.395 26.37c5.657 0 10.244-4.586 10.244-10.244s-4.586-10.244-10.244-10.244v0c-5.658 0-10.244 4.586-10.244 10.244s4.586 10.244 10.244 10.244v0z"></path><path fill="#fff" style="fill: var(--color3, #fff)" d="M23.396 10.505l-1.499 5.623-1.249 0.499-0.375 1.375 1.249-0.5-0.875 3.373h8.62l0.5-1.998h-5.371l0.749-2.75 1.499-0.499 0.375-1.375-1.499 0.626 1.125-4.373h-3.247z"></path></symbol>
<symbol id="icon-payment-icon-12" viewBox="0 0 49 32"><path fill="#000" style="fill: var(--color1, #000)" opacity="0.07" d="M44.711 1.137h-39.976c-2.12 0-3.745 1.624-3.745 3.748v22.487c0 2.124 1.748 3.748 3.748 3.748h39.976c2.123 0 3.748-1.624 3.748-3.748v-22.487c0-2.124-1.749-3.748-3.749-3.748z"></path><path fill="#fff" style="fill: var(--color3, #fff)" d="M44.711 2.386c1.375 0 2.498 1.125 2.498 2.498v22.487c0 1.375-1.124 2.498-2.498 2.498h-39.976c-1.378-0.005-2.493-1.121-2.497-2.498v-22.487c0-1.375 1.124-2.498 2.498-2.498h39.976z"></path><path fill="#eb001b" style="fill: var(--color22, #eb001b)" d="M19.727 24.872c4.83 0 8.745-3.915 8.745-8.745s-3.915-8.745-8.745-8.745v0c-4.83 0-8.745 3.915-8.745 8.745s3.915 8.745 8.745 8.745v0z"></path><path fill="#f79e1b" style="fill: var(--color23, #f79e1b)" d="M29.721 24.872c4.83 0 8.745-3.915 8.745-8.745s-3.915-8.745-8.745-8.745v0c-4.83 0-8.745 3.915-8.745 8.745s3.915 8.745 8.745 8.745v0z"></path><path fill="#ff5f00" style="fill: var(--color24, #ff5f00)" d="M28.472 16.128c0-2.999-1.499-5.623-3.748-7.121-2.248 1.624-3.748 4.247-3.748 7.121 0 2.873 1.499 5.621 3.748 7.121 2.248-1.499 3.748-4.123 3.748-7.121z"></path></symbol>
<symbol id="icon-payment-icon-13" viewBox="0 0 49 32"><path fill="#000" style="fill: var(--color1, #000)" opacity="0.07" d="M43.857 1.137h-39.976c-2.124 0-3.748 1.624-3.748 3.748v22.487c0 2.124 1.748 3.748 3.748 3.748h39.976c2.123 0 3.748-1.624 3.748-3.748v-22.487c0-2.123-1.749-3.746-3.748-3.746z"></path><path fill="#fff" style="fill: var(--color3, #fff)" d="M43.857 2.386c1.375 0 2.498 1.125 2.498 2.498v22.487c0 1.375-1.125 2.498-2.498 2.498h-39.976c-1.378-0.004-2.494-1.12-2.498-2.498v-22.487c0-1.375 1.125-2.498 2.498-2.498h39.976z"></path><path fill="#003087" style="fill: var(--color25, #003087)" d="M29.99 11.506c0.25-1.249 0-2.124-0.749-2.874-0.75-0.873-2.124-1.249-3.873-1.249h-5.121c-0.376 0-0.625 0.25-0.75 0.625l-1.873 12.617c0 0.25 0.124 0.5 0.373 0.5h3.373l0.5-4.248 2.248-2.748 5.871-2.623z"></path><path fill="#3086c8" style="fill: var(--color7, #3086c8)" d="M29.991 11.506l-0.25 0.249c-0.625 3.499-2.75 4.748-5.747 4.748h-1.375c-0.375 0-0.623 0.249-0.749 0.625l-0.749 4.871-0.25 1.25c0 0.249 0.124 0.499 0.375 0.499h2.624c0.375 0 0.625-0.249 0.625-0.499v-0.126l0.499-2.999v-0.124c0-0.249 0.376-0.499 0.625-0.499h0.376c2.623 0 4.622-1 5.121-3.998 0.25-1.249 0.126-2.249-0.499-2.999-0.126-0.625-0.376-0.875-0.625-0.999z"></path><path fill="#012169" style="fill: var(--color26, #012169)" d="M29.241 11.256c-0.124-0.124-0.249-0.124-0.375-0.124s-0.249 0-0.375-0.126c-0.375-0.124-0.875-0.124-1.375-0.124h-3.748c-0.124 0-0.249 0-0.249 0.124-0.25 0.126-0.376 0.249-0.376 0.5l-0.875 5.497v0.124c0-0.375 0.376-0.625 0.75-0.625h1.624c3.123 0 5.122-1.249 5.747-4.747v-0.25c-0.164-0.151-0.383-0.245-0.624-0.25l-0.001-0h-0.126z"></path></symbol>
<symbol id="icon-payment-icon-14" viewBox="0 0 49 32"><path fill="#000" style="fill: var(--color1, #000)" opacity="0.07" d="M44.185 1.137h-39.976c-2.123 0-3.746 1.624-3.746 3.748v22.487c0 2.124 1.748 3.748 3.748 3.748h39.976c2.123 0 3.748-1.624 3.748-3.748v-22.487c0-2.123-1.749-3.746-3.75-3.746z"></path><path fill="#fff" style="fill: var(--color3, #fff)" d="M44.186 2.386c1.374 0 2.498 1.125 2.498 2.498v22.487c0 1.375-1.125 2.498-2.498 2.498h-39.976c-1.378-0.004-2.494-1.12-2.498-2.498v-22.487c0-1.375 1.124-2.498 2.498-2.498h39.976z"></path><path fill="#1652f0" style="fill: var(--color27, #1652f0)" d="M24.198 26.37c5.657 0 10.244-4.586 10.244-10.244s-4.586-10.244-10.244-10.244v0c-5.658 0-10.244 4.586-10.244 10.244s4.586 10.244 10.244 10.244v0z"></path><path fill="#fff" style="fill: var(--color3, #fff)" d="M26.671 17.445c0-1.293-0.786-1.73-2.308-1.939-1.125-0.162-1.343-0.425-1.343-0.949 0-0.525 0.38-0.853 1.109-0.853 0.663 0 1.045 0.231 1.203 0.766 0.034 0.118 0.14 0.203 0.266 0.205h0.583c0.001 0 0.001 0 0.002 0 0.144 0 0.261-0.117 0.261-0.261 0-0.015-0.001-0.029-0.004-0.043l0 0.002c-0.185-0.844-0.754-1.351-1.645-1.511v-0.889c0 0 0 0 0 0 0-0.153-0.123-0.277-0.276-0.277h-0.557c-0.153 0.001-0.276 0.125-0.276 0.277 0 0 0 0 0 0v0 0.858c-1.107 0.156-1.807 0.887-1.807 1.826 0 1.212 0.738 1.683 2.283 1.893 1.050 0.172 1.35 0.399 1.35 0.996 0 0.597-0.507 0.997-1.224 0.997-0.966 0-1.293-0.422-1.402-0.971-0.027-0.128-0.138-0.224-0.272-0.225h-0.631c-0.001-0-0.002-0-0.004-0-0.142 0-0.257 0.115-0.257 0.257 0 0.015 0.001 0.030 0.004 0.044l-0-0.002c0.162 0.924 0.754 1.6 1.961 1.762v0.877c0 0.153 0.124 0.277 0.277 0.277v0h0.556c0.153-0.001 0.276-0.125 0.276-0.277 0-0 0-0.001 0-0.001v0-0.873c1.145-0.183 1.873-0.973 1.873-1.965z"></path><path fill="#fff" style="fill: var(--color3, #fff)" d="M22.099 21.87c-2.363-0.882-4.015-3.12-4.015-5.743s1.652-4.861 3.973-5.73l0.042-0.014c0.15-0.068 0.255-0.213 0.263-0.383l0-0.001v-0.572c0.001-0.009 0.002-0.019 0.002-0.030 0-0.159-0.129-0.288-0.288-0.288-0.044 0-0.085 0.010-0.122 0.027l0.002-0.001c-2.987 0.975-5.108 3.735-5.108 6.991s2.121 6.017 5.056 6.977l0.052 0.015c0.035 0.016 0.076 0.025 0.119 0.025 0.16 0 0.289-0.129 0.289-0.289 0-0.009-0-0.019-0.001-0.028l0 0.001v-0.57c-0.007-0.172-0.111-0.318-0.259-0.385l-0.003-0.001h-0.001zM26.439 9.138c-0.035-0.016-0.076-0.025-0.119-0.025-0.16 0-0.29 0.13-0.29 0.29 0 0.009 0 0.019 0.001 0.028l-0-0.001v0.571c0.008 0.172 0.113 0.317 0.262 0.383l0.003 0.001c2.362 0.883 4.014 3.12 4.014 5.744s-1.652 4.861-3.972 5.73l-0.042 0.014c-0.155 0.060-0.263 0.208-0.263 0.381 0 0.002 0 0.004 0 0.005v-0 0.571c-0.001 0.008-0.001 0.016-0.001 0.025 0 0.16 0.13 0.29 0.29 0.29 0.043 0 0.084-0.009 0.12-0.026l-0.002 0.001c2.987-0.974 5.108-3.735 5.108-6.991s-2.121-6.017-5.056-6.977l-0.052-0.015h-0.001z"></path></symbol>
<symbol id="icon-payment-icon-15" viewBox="0 0 49 32"><path fill="#000" style="fill: var(--color1, #000)" opacity="0.07" d="M44.516 1.137h-39.976c-2.070 0-3.748 1.678-3.748 3.748v0 22.487c0 2.070 1.678 3.748 3.748 3.748v0h39.976c2.069-0.001 3.746-1.678 3.746-3.748v-22.487c-0.001-2.069-1.678-3.746-3.746-3.746h-0z"></path><path fill="#3d95ce" style="fill: var(--color28, #3d95ce)" d="M44.516 2.386c1.374 0 2.497 1.125 2.497 2.498v22.487c0 1.375-1.124 2.498-2.498 2.498h-39.975c-1.378-0.004-2.494-1.12-2.498-2.498v-22.487c0-1.375 1.126-2.498 2.5-2.498h39.976z"></path><path fill="#fff" style="fill: var(--color3, #fff)" d="M31.616 11.579c0 3.828-3.194 8.802-5.787 12.294h-5.921l-2.376-14.529 5.185-0.503 1.256 10.338c1.173-1.956 2.622-5.029 2.622-7.123 0-1.147-0.192-1.928-0.492-2.572l4.722-0.978c0.545 0.922 0.792 1.873 0.792 3.073z"></path></symbol>
<symbol id="icon-payment-icon-16" viewBox="0 0 49 32"><path fill="#000" style="fill: var(--color1, #000)" opacity="0.07" d="M44.845 1.137h-39.976c-2.121 0-3.745 1.624-3.745 3.748v22.487c0 2.124 1.748 3.748 3.748 3.748h39.976c2.123 0 3.746-1.624 3.746-3.748v-22.487c-0.001-2.123-1.749-3.746-3.749-3.746z"></path><path fill="#fff" style="fill: var(--color3, #fff)" d="M44.846 2.386c1.375 0 2.498 1.125 2.498 2.498v22.487c0 1.375-1.125 2.498-2.498 2.498h-39.976c-1.378-0.004-2.494-1.12-2.498-2.498v-22.487c0-1.375 1.125-2.498 2.498-2.498h39.976z"></path><path fill="#142688" style="fill: var(--color29, #142688)" d="M36.475 13.754h-0.375c-0.5 1.249-0.875 1.874-1.249 3.748h2.373c-0.375-1.873-0.375-2.748-0.749-3.748zM40.098 21.125h-2.125c-0.126 0-0.126 0-0.25-0.126l-0.249-1.124-0.126-0.25h-2.999c-0.124 0-0.249 0-0.249 0.249l-0.376 1.126c0 0.124-0.124 0.124-0.124 0.124h-2.624l0.249-0.625 3.624-8.495c0-0.625 0.375-0.875 0.999-0.875h1.873c0.126 0 0.251 0 0.251 0.25l1.748 8.121c0.126 0.499 0.25 0.873 0.25 1.375 0.126 0.123 0.126 0.123 0.126 0.249zM23.358 20.75l0.5-2.249c0.124 0 0.249 0.126 0.249 0.126 0.876 0.375 1.751 0.625 2.624 0.499 0.25 0 0.625-0.124 0.875-0.249 0.625-0.25 0.625-0.875 0.126-1.375-0.25-0.249-0.625-0.375-1-0.625-0.499-0.249-0.999-0.499-1.375-0.875-1.498-1.249-0.998-2.999-0.123-3.872 0.749-0.5 1.124-1 2.123-1 1.499 0 3.124 0 3.873 0.25h0.124c-0.124 0.75-0.249 1.375-0.499 2.124-0.625-0.249-1.249-0.499-1.874-0.499-0.376 0-0.75 0-1.125 0.124-0.249 0-0.375 0.124-0.5 0.249-0.116 0.11-0.188 0.266-0.188 0.438s0.072 0.328 0.188 0.438l0 0 0.625 0.499c0.5 0.25 1 0.5 1.375 0.75 0.625 0.375 1.249 0.999 1.375 1.748 0.249 1.125-0.126 2.124-1.126 2.874-0.623 0.499-0.873 0.749-1.748 0.749-1.749 0-3.123 0.124-4.248-0.249-0.124 0.249-0.124 0.249-0.249 0.124zM18.985 21.125c0.126-0.875 0.126-0.875 0.25-1.249 0.625-2.75 1.249-5.621 1.749-8.37 0.124-0.25 0.124-0.376 0.375-0.376h2.248c-0.26 1.594-0.564 2.943-0.939 4.262l0.064-0.265c-0.375 1.875-0.749 3.749-1.249 5.623 0 0.249-0.124 0.249-0.375 0.249l-2.124 0.126zM7.368 11.38c0-0.124 0.249-0.249 0.375-0.249h4.247c0.626 0 1.126 0.375 1.25 0.999l1.124 5.497c0 0.124 0 0.124 0.126 0.249 0-0.124 0.124-0.124 0.124-0.124l2.623-6.372c-0.124-0.124 0-0.249 0.126-0.249h2.623c0 0.124 0 0.124-0.124 0.249l-3.873 9.12c-0.124 0.249-0.124 0.375-0.249 0.499-0.126 0.126-0.375 0-0.625 0h-1.875c-0.126 0-0.25 0-0.25-0.249l-1.999-7.745c-0.249-0.25-0.625-0.626-1.124-0.75-0.75-0.375-2.124-0.625-2.374-0.625l-0.124-0.249z"></path></symbol>
</defs>
</svg>
