<svg aria-hidden="true" style="position: absolute; width: 0; height: 0; overflow: hidden;" version="1.1" xmlns="http://www.w3.org/2000/svg" xmlns:xlink="http://www.w3.org/1999/xlink">
<defs>
<symbol id="icon-cart_shopping_icon" viewBox="0 0 32 32"><path stroke-linejoin="round" stroke-linecap="round" stroke-miterlimit="4" stroke-width="2.0416" d="M10.474 30.691c1.446 0 2.618-1.172 2.618-2.618s-1.172-2.618-2.618-2.618v0c-1.446 0-2.618 1.172-2.618 2.618s1.172 2.618 2.618 2.618v0zM26.182 30.691c1.446 0 2.618-1.172 2.618-2.618s-1.172-2.618-2.618-2.618v0c-1.446 0-2.618 1.172-2.618 2.618s1.172 2.618 2.618 2.618v0zM7.424 8.437h22.685l-2.198 10.982c-0.246 1.211-1.302 2.109-2.568 2.109-0.018 0-0.036-0-0.054-0.001l0.003 0h-13.835c-0.006 0-0.013 0-0.021 0-1.326 0-2.423-0.986-2.595-2.265l-0.002-0.014-1.992-15.082c-0.174-1.29-1.268-2.275-2.592-2.277h-2.943"></path></symbol>
<symbol id="icon-instagram" viewBox="0 0 32 32"><path d="M16.315 32h-0.32c-0.139 0.001-0.303 0.001-0.467 0.001-2.325 0-4.634-0.071-6.924-0.212l0.314 0.015c-2.068-0.124-3.954-0.839-5.456-2.064-1.449-1.182-2.439-2.78-2.942-4.75-0.437-1.716-0.462-3.399-0.484-5.026-0.016-1.17-0.032-2.553-0.036-3.961 0.004-1.413 0.020-2.798 0.036-3.964 0.023-1.63 0.046-3.312 0.484-5.028 0.503-1.97 1.493-3.568 2.942-4.75 1.502-1.227 3.388-1.941 5.456-2.066 1.978-0.125 4.289-0.197 6.617-0.197 0.164 0 0.328 0 0.491 0.001l-0.025-0c0.134-0.001 0.293-0.001 0.452-0.001 2.332 0 4.648 0.071 6.945 0.212l-0.315-0.015c2.066 0.126 3.952 0.841 5.454 2.066 1.451 1.182 2.441 2.78 2.942 4.75 0.437 1.714 0.462 3.397 0.484 5.026 0.018 1.168 0.032 2.553 0.036 3.961v0.005c-0.004 1.408-0.018 2.791-0.036 3.961-0.021 1.627-0.044 3.31-0.484 5.026-0.501 1.97-1.493 3.568-2.942 4.75-1.502 1.227-3.388 1.938-5.454 2.066-2.158 0.13-4.377 0.196-6.768 0.196zM15.995 29.5c0.14 0.001 0.306 0.001 0.472 0.001 2.274 0 4.532-0.069 6.771-0.206l-0.307 0.015c1.564-0.094 2.917-0.603 4.028-1.508 1.026-0.836 1.732-1.991 2.098-3.431 0.366-1.428 0.386-2.96 0.407-4.443 0.016-1.159 0.032-2.533 0.036-3.929-0.004-1.394-0.020-2.768-0.036-3.929-0.021-1.481-0.041-3.015-0.405-4.443-0.368-1.44-1.074-2.594-2.1-3.431-1.111-0.903-2.466-1.412-4.028-1.506-1.931-0.122-4.188-0.191-6.461-0.191-0.164 0-0.328 0-0.492 0.001l0.025-0c-0.143-0.001-0.311-0.001-0.48-0.001-2.27 0-4.524 0.069-6.76 0.206l0.307-0.015c-1.563 0.094-2.917 0.603-4.027 1.506-1.026 0.837-1.733 1.991-2.1 3.431-0.364 1.428-0.386 2.96-0.407 4.444-0.014 1.161-0.032 2.535-0.036 3.931 0.004 1.388 0.021 2.764 0.036 3.925 0.021 1.483 0.043 3.015 0.407 4.444 0.366 1.44 1.074 2.592 2.098 3.431 1.111 0.903 2.466 1.41 4.028 1.506 2.201 0.133 4.468 0.196 6.928 0.19zM15.936 23.812c-4.312-0.006-7.806-3.5-7.812-7.811v-0.001c0.006-4.312 3.5-7.806 7.811-7.812h0.001c4.313 0.004 7.809 3.499 7.815 7.811v0.001c-0.005 4.313-3.5 7.808-7.813 7.813h-0zM15.936 10.688c-2.932 0.004-5.308 2.38-5.312 5.312v0c0.003 2.933 2.379 5.31 5.312 5.314h0c2.934-0.003 5.311-2.38 5.314-5.314v-0c-0.004-2.933-2.381-5.309-5.314-5.312h-0zM24.624 5.689c-0.017-0.001-0.037-0.001-0.058-0.001-1.036 0-1.876 0.84-1.876 1.876s0.84 1.876 1.876 1.876c0.020 0 0.041-0 0.061-0.001l-0.003 0c1.036 0 1.876-0.84 1.876-1.876s-0.84-1.876-1.876-1.876v0z"></path></symbol>
<symbol id="icon-tel" viewBox="0 0 32 32"><path stroke-linejoin="miter" stroke-linecap="butt" stroke-miterlimit="4" stroke-width="2.4" d="M7.437 20.744c2.771 3.305 6.168 5.986 10.022 7.882l0.18 0.080c1.491 0.704 3.486 1.539 5.709 1.683 0.138 0.005 0.269 0.011 0.406 0.011 1.491 0 2.69-0.512 3.666-1.568 0.006-0.008 0.019-0.019 0.024-0.032 0.347-0.416 0.744-0.794 1.157-1.192 0.293-0.278 0.568-0.551 0.838-0.829l0.007-0.007c1.275-1.325 1.275-3.008-0.013-4.29l-3.6-3.587c-0.611-0.632-1.341-0.966-2.109-0.966-0.766 0-1.504 0.334-2.131 0.96l-2.144 2.136c-0.198-0.112-0.403-0.214-0.594-0.31-0.266-0.127-0.482-0.246-0.691-0.375l0.032 0.018c-1.952-1.235-3.726-2.848-5.422-4.918-0.856-1.080-1.43-1.987-1.832-2.912 0.563-0.507 1.090-1.038 1.6-1.557 0.179-0.186 0.365-0.37 0.55-0.555 0.646-0.645 0.994-1.392 0.994-2.149 0-0.758-0.341-1.504-0.994-2.149l-1.786-1.778c-0.208-0.208-0.406-0.411-0.611-0.621-0.396-0.411-0.792-0.803-1.198-1.184l-0.018-0.016c-0.614-0.602-1.341-0.918-2.109-0.918-0.76 0-1.491 0.317-2.131 0.925l-2.24 2.232c-0.774 0.754-1.283 1.778-1.372 2.92l-0.001 0.016c-0.114 1.427 0.15 2.942 0.832 4.774 1.050 2.835 2.63 5.467 4.979 8.277z"></path></symbol>
<symbol id="icon-menu" viewBox="0 0 48 32"><path d="M0 5.334v-5.334h48v5.334h-48zM0 18.666h48v-5.332h-48v5.332zM0 32h48v-5.334h-48v5.334z"></path></symbol>
<symbol id="icon-next" viewBox="0 0 9 32"><path fill="none" stroke="#009eff" style="stroke: var(--color1, #009eff)" stroke-linejoin="miter" stroke-linecap="square" stroke-miterlimit="4" stroke-width="1.1034" d="M1.103 1.103l5.937 13.315 0.684 1.545-0.684 1.545-5.937 13.388"></path></symbol>
<symbol id="icon-logo" viewBox="0 0 43 32"><path fill="#4a4af4" style="fill: var(--color1, #4a4af4)" d="M7.053 31.429c-1.714-2.648-2.688-5.716-2.82-8.878s0.583-6.303 2.070-9.087 3.69-5.111 6.376-6.732c2.686-1.621 5.755-2.477 8.883-2.477s6.197 0.856 8.883 2.477 4.889 3.947 6.376 6.732c1.487 2.785 2.202 5.925 2.070 9.087s-1.107 6.23-2.82 8.878h4.856c1.613-3.328 2.362-7.016 2.177-10.718s-1.299-7.295-3.236-10.441c-1.937-3.146-4.634-5.74-7.836-7.539s-6.804-2.743-10.466-2.743c-3.662 0-7.264 0.944-10.466 2.743s-5.899 4.393-7.836 7.539c-1.937 3.146-3.051 6.739-3.236 10.441s0.564 7.39 2.177 10.718h4.849z"></path><path fill="#060809" style="fill: var(--color2, #060809)" d="M21.854 11.455c-3.158 0-6.794 1.508-8.768 3.1l1.8 3.839c1.582-1.465 4.142-2.717 6.448-2.717 2.194 0 3.402 0.739 3.402 2.238 0 0.999-0.803 1.572-2.319 1.712-5.688 0.529-10.11 2.331-10.11 6.75 0 3.506 2.497 5.624 6.606 5.624 1.235 0.002 2.449-0.33 3.515-0.96s1.948-1.537 2.554-2.626v3.014h5.126v-12.634c0-5.218-3.586-7.326-8.254-7.326v-0.013zM20.357 27.947c-1.645 0-2.569-0.719-2.569-1.898 0-2.464 2.961-3.057 6.843-3.057 0 2.577-1.704 4.955-4.277 4.955h0.003z"></path></symbol>
<symbol id="icon-blackmap" viewBox="0 0 50 32">
<path fill="#999" style="fill: var(--color1, #999)" d="M4.33 0c1.471 0.404 2.953 0.797 4.466 1.159-0.226 1.171-0.58 2.215-0.716 3.476-0.933-0.209-1.84-0.531-2.83-0.341-0.152-0.138-0.337-0.030-0.511-0.068-0.268-0.059-0.475-0.27-0.716-0.273-0.216 0.205-0.6 0.058-0.75-0.102 0.076-0.316 0.070-0.81-0.341-0.75-0.019-0.349-0.479-0.082-0.511-0.375 0.072-0.133 0.278-0.131 0.273-0.341 0.053-0.144-0.189 0.007-0.136-0.136-0.037-0.162 0.111-0.139 0.239-0.136-0.247-0.461-0.272-1.314-0.17-1.84 0.395 0.331 0.804 0.65 1.466 0.715 0.036-0.079 0.087-0.32 0.17-0.238 0.109 0.161-0.080 0.005-0.102 0.136 0.041 0.197 0.143 0.334 0.273 0.443-0.048-0.462 0.115-0.966-0.102-1.329z"></path>
<path fill="#999" style="fill: var(--color1, #999)" d="M8.864 1.159c0.224 0.071 0.502 0.088 0.716 0.17-0.082 0.383-0.142 0.79-0.273 1.125 0.105 0.213 0.286 0.436 0.136 0.715 0.045 0.171 0.155 0.277 0.307 0.341 0.16 0.328 0.181 0.796 0.614 0.852-0.090 0.433-0.295 0.751-0.409 1.159 0.036 0.123 0.13 0.189 0.205 0.272 0.179-0.002 0.28-0.228 0.409-0.17-0.007 0.563 0.123 0.99 0.443 1.227-0.067 0.188-0.024 0.389 0.102 0.477 0.207-0.18 0.726-0.083 1.091-0.034 0.195 0.036 0.106-0.212 0.307-0.17 0.303 0.354 0.054 0.899-0.034 1.465-0.097 0.622-0.13 1.25-0.239 1.772-1.841-0.227-3.502-0.635-5.216-0.988 0.197-0.882 0.379-1.779 0.682-2.556-0.047-0.078-0.078-0.172-0.239-0.136 0.064-0.255 0.114-0.522 0.409-0.545 0.116-0.35 0.313-0.619 0.545-0.852-0.059-0.406-0.306-0.496-0.239-1.056 0.105-0.877 0.573-2.236 0.682-3.067z"></path>
<path fill="#999" style="fill: var(--color1, #999)" d="M9.648 1.329c2.985 0.662 6.19 1.106 9.512 1.431-0.116 1.6-0.258 3.173-0.409 4.737-2.037-0.179-4.002-0.43-5.932-0.716-0.061 0.166-0.083 0.371-0.102 0.579-0.13-0.053-0.062-0.302-0.239-0.307-0.199-0.051-0.122 0.173-0.273 0.17-0.347-0.067-0.954-0.122-1.091 0-0.096-0.104-0.050-0.218-0.034-0.375-0.331-0.271-0.443-0.761-0.477-1.329-0.23-0.014-0.241 0.191-0.443 0.205-0.305-0.398 0.26-0.856 0.273-1.363-0.516-0.143-0.434-0.884-0.886-1.090 0.028-0.239 0.046-0.593-0.136-0.784 0.079-0.387 0.167-0.765 0.239-1.159zM48.82 1.84c0.131 0.585 0.352 1.079 0.477 1.67h0.341c0.080 0.17 0.041 0.458 0.239 0.511 0.119-0.010-0.003-0.092 0.068-0.102 0.214 0.014 0.234 0.22 0.341 0.341-0.128 0.372-0.488 0.512-0.716 0.784-0.090 0.010-0.027-0.132-0.136-0.102-0.161 0.054-0.327 0.21-0.307 0.341-0.054 0.003-0.13-0.016-0.136 0.034-0.080-0.011-0.033-0.149-0.102-0.17-0.225 0.030-0.020 0.418-0.102 0.614-0.057 0.045-0.114 0.090-0.239 0.068 0.034 0.271-0.317 0.41-0.443 0.307-0.225 0.234-0.201 0.645-0.307 1.056-0.136-0.069-0.145-0.264-0.341-0.273-0.147-0.818-0.478-1.453-0.648-2.249 0.065 0.015 0.086 0.073 0.17 0.068-0.053-0.462 0.201-0.617 0.273-0.954-0.128-0.104-0.159-0.516 0-0.613-0.111-0.582 0.207-0.986 0.375-1.397 0.13 0.041 0.081 0.26 0.273 0.238 0.256-0.253 0.548-0.438 0.92-0.17zM26.387 2.556c0.080-0.001 0.1 0.059 0.205 0.034 0.113 0.227 0.058 0.623 0.239 0.784 0.241 0.043 0.568 0 0.648 0.204 0.244 0.050 0.315-0.071 0.409-0.17 0.433-0.007 0.619 0.395 1.023 0.307 0.019 0.282 0.324 0.092 0.273 0.307 0.317 0.107 0.516-0.062 0.682-0.204 0.103-0.001 0.033 0.171 0.136 0.17 0.409-0.168 0.615 0.149 0.955 0.068-0.337 0.232-0.691 0.292-0.989 0.511-0.45 0.331-0.682 0.899-1.193 1.159v0.681c-0.168 0.207-0.458 0.292-0.477 0.648 0.008 0.117 0.182 0.068 0.205 0.17-0.122 0.269-0.083 0.518-0.068 0.886 0.126 0.158 0.346 0.222 0.511 0.341 0.137 0.098 0.202 0.219 0.341 0.341 0.213 0.186 0.63 0.207 0.545 0.715-1.462 0.072-2.967 0.102-4.5 0.102-0.1-0.854 0.269-2.177-0.341-2.522 0.053-0.095 0.182-0.113 0.239-0.205 0.109-0.392-0.109-0.728-0.171-1.090-0.068-0.399 0.023-0.842-0.068-1.227-0.052-0.218-0.18-0.362-0.205-0.545-0.041-0.31 0.114-0.735-0.068-0.988 0.449-0.039 1.087 0.026 1.637 0 0.079-0.092 0.012-0.329 0.034-0.477z"></path>
<path fill="#999" style="fill: var(--color1, #999)" d="M24.648 2.999c0.168 0.319 0.025 0.656 0.068 1.022 0.023 0.199 0.153 0.362 0.205 0.579 0.088 0.369 0.006 0.814 0.068 1.193 0.046 0.284 0.244 0.554 0.171 0.852-2.169 0.010-4.172-0.146-6.205-0.272 0.058-1.249 0.182-2.431 0.307-3.613 1.748 0.127 3.488 0.262 5.386 0.239zM3.136 3.203c0.113 0.12 0.155 0.497 0.034 0.648 0.104 0.111 0.26 0.172 0.375 0.273 0.169-0.013 0.415 0.051 0.443-0.102 0.236 0.010 0.44 0.211 0.682 0.273 0.072 0.018 0.211-0.051 0.307-0.034 0.109 0.019 0.127 0.099 0.205 0.102 0.429 0.018 0.856-0.083 1.296-0.034 0.566 0.063 1.075 0.324 1.637 0.375 0.007 0.297 0.24 0.246 0.239 0.477-0.002 0.279-0.496 0.447-0.477 0.818-0.258 0.117-0.425 0.325-0.478 0.647-0.037 0.162 0.203 0.047 0.205 0.17-0.261 0.795-0.445 1.668-0.648 2.522-2.197-0.416-4.185-1.041-6.205-1.636-0.148-0.289 0.078-0.628 0.034-1.022 0.788-0.973 1.197-2.325 1.67-3.612 0.324-0.194 0.379 0.127 0.682 0.136zM32.524 4.567c-0.282 0.184-0.519 0.413-0.58 0.818 0.104 0.071 0.171-0.131 0.273-0.17 0.406-0.008 0.505 0.29 0.716 0.477 0.106 0.081 0.186-0.077 0.273-0.068 0.113 0.012 0.162 0.165 0.375 0.068 0.197-0.089 0.263-0.296 0.477-0.341 0.284-0.060 0.545 0.019 0.75-0.17 0.077 0.025 0.013 0.191 0.034 0.273 0.21 0.241 0.537-0.036 0.784-0.068-0.028 0.3 0.011 0.535 0.239 0.579-0.488 0.093-0.788 0.144-1.329 0.034-0.069 0.329-0.761 0.034-0.716 0.477-0.143-0.25-0.36 0.155-0.511-0.034-0.207 0.236-0.247 0.64-0.409 0.92-0.19-0.106-0.181-0.409-0.205-0.682-0.039-0.086-0.151-0.099-0.273-0.102 0.025-0.104-0.035-0.124-0.034-0.205-0.697 0.004-1.086-0.3-1.739-0.341-0.087-0.072-0.095-0.223-0.239-0.239 0.191-0.093 0.385-0.183 0.511-0.341 0.82-0.010 0.751-0.908 1.602-0.886zM46.57 4.771c0.064-0.032 0.114 0.102 0.136 0 0.276 0.667 0.496 1.39 0.682 2.147 0.141 0.109 0.257 0.243 0.375 0.375-0.256 0.427-0.846 0.698-1.466 0.648-0.050-0.568 0.051-1.196 0-1.806 0.071-0.145 0.233-0.199 0.307-0.341-0.024-0.331-0.209-0.699-0.034-1.023z"></path>
<path fill="#999" style="fill: var(--color1, #999)" d="M46.399 5.146c0.126 0.398 0.206 0.786-0.205 0.92 0.146 0.584-0.085 1.369 0.068 1.909-0.17 0.077-0.368 0.126-0.576 0.136l-0.004 0c-0.086-0.357-0.025-0.861-0.375-0.954-0.045-0.519-0.191-1.048-0.307-1.636 0.448-0.143 0.962-0.22 1.398-0.375zM30.069 5.384c-0.031 0.151-0.14 0.224-0.171 0.375 0.031 0.082 0.192 0.015 0.205-0.034 0.202 0.094 0.43 0.161 0.511 0.375 0.655 0.027 1.022 0.341 1.705 0.341-0.025 0.14 0.108 0.231 0.307 0.239-0.007 0.337 0.066 0.593 0.205 0.784-0.132 0.119-0.363 0.46-0.205 0.648 0.283-0.285 0.489-0.647 0.716-0.988-0.262 1.008-0.711 2.173-0.375 3.408-0.958-0.019-2.142 0.336-2.864-0.068-0.091-0.161-0.152-0.431-0.034-0.614-0.138-0.168-0.195-0.419-0.205-0.715-0.433-0.373-0.845-0.769-1.364-1.057-0.014-0.354-0.050-0.566 0.068-0.818-0.012-0.124-0.080-0.192-0.205-0.205 0.056-0.285 0.232-0.449 0.477-0.545 0.012-0.283-0.043-0.634 0.068-0.818 0.495 0.154 0.798-0.326 1.159-0.307z"></path>
<path fill="#999" style="fill: var(--color1, #999)" d="M44.865 5.555c0.25 0.482 0.288 1.123 0.375 1.636 0.031 0.059 0.106 0.075 0.204 0.068 0.228 0.476 0.1 1.111 0.17 1.704 0.051 0.427 0.299 0.868 0.102 1.227 0.075 0.145 0.052 0.216 0.034 0.409 0.324-0.342 0.95-0.277 1.261-0.682 0.029 0.050 0.086 0.073 0.17 0.068-0.414 0.382-0.807 0.784-1.534 0.852-0.050 0.030-0.108 0.051-0.102 0.136-0.043-0.146 0.168-0.331 0.102-0.614-0.37-0.118-0.704-0.273-1.091-0.375-0.109-0.22-0.255-0.404-0.443-0.545-1.314 0.243-2.552 0.562-3.921 0.75-0.002-0.559 0.456-0.657 0.648-1.022-0.047-0.225-0.269-0.277-0.307-0.511 0.437-0.435 1.266-0.182 1.841-0.375 0.235-0.117 0.303-0.401 0.579-0.477-0.039-0.225-0.136-0.298-0.034-0.511-0.056-0.069-0.224-0.026-0.239-0.136 0.020-0.264 0.244-0.324 0.375-0.477 0.101-0.353 0.359-0.55 0.545-0.818 0.389-0.133 0.89-0.155 1.261-0.307zM36.547 7.054c-0.045-0.044-0.127-0.045-0.136 0.034 0.159 0.193 0.256 0.448 0.205 0.852-0.251 0.045-0.105 0.486-0.409 0.477-0.027 0.242 0.034 0.398 0.205 0.443 0.303-0.128 0.296-0.567 0.614-0.682 0.428 0.302 0.664 1.15 0.545 1.772-0.171 0.025 0.045-0.126-0.068-0.136-0.25 0.341-0.379 0.802-0.546 1.227-0.945 0.166-1.879 0.159-2.898 0.272 0.195-0.462 0.377-0.75 0.341-1.227-0.031-0.411-0.38-0.706-0.409-1.056-0.003-0.038 0.020-0.343 0.034-0.511 0.019-0.226 0.252-0.487 0.068-0.716 0.156-0.078 0.168-0.167 0.17-0.341 0.198-0.041 0.258-0.219 0.341-0.375 0.077 0.123-0.079 0.306-0.034 0.511 0.298 0.008 0.252-0.372 0.205-0.614 0.064-0.129 0.319-0.067 0.375-0.205-0.089-0.036-0.182-0.067-0.205-0.17 0.334-0.584 0.922 0.145 1.432 0.102 0.006 0.165 0.165 0.176 0.17 0.341zM25.16 6.747c0.028 0.21-0.186 0.178-0.239 0.307 0.058 0.192 0.215 0.285 0.341 0.409v2.045c0.046 0.171-0.198 0.053-0.136 0.239-0.015 0.163 0.029 0.266 0.136 0.307-0.056 0.316-0.179 0.62-0.034 0.784-0.244-0.328-0.82-0.632-1.296-0.341-0.168-0.093-0.333-0.19-0.477-0.306-1.651-0.031-3.203-0.161-4.807-0.239 0.023-1.238 0.19-2.332 0.272-3.51 2.033 0.149 4.125 0.239 6.239 0.307zM18.717 7.566c-0.079 1.636-0.236 3.194-0.375 4.771-2.189-0.129-4.16-0.477-6.239-0.715 0.243-1.597 0.506-3.175 0.75-4.771 1.891 0.302 3.854 0.532 5.864 0.716z"></path>
<path fill="#999" style="fill: var(--color1, #999)" d="M47.865 7.77c-0.088 0.116-0.198 0.338-0.068 0.477 0.104 0.025 0.1-0.059 0.205-0.034 0.225 0.183 0.231 0.508 0.545 0.511 0.163 0.002 0.195-0.247 0.341-0.102-0.14 0.167-0.466 0.148-0.546 0.375-0.050-0.029-0.073-0.086-0.068-0.17-0.212 0.021-0.213 0.215-0.273 0.307-0.21-0.131-0.322-0.36-0.477-0.545-0.627 0.123-1.211 0.288-1.841 0.409v-0.818c0.63-0.063 1.144-0.242 1.739-0.341 0.008-0.222 0.382-0.498 0.443-0.068z"></path>
<path fill="#009eff" style="fill: var(--color2, #009eff)" d="M0.75 7.804c1.209 0.314 2.356 0.689 3.58 0.988-0.171 0.865-0.446 1.712-0.682 2.59-0.085 0.315-0.214 0.749-0.17 0.988 0.031 0.168 0.314 0.516 0.477 0.75 1.129 1.614 2.337 3.522 3.409 5.078-0.018 0.331 0.171 0.671 0.307 0.954-0.267 0.164-0.522 0.341-0.511 0.784-0.087 0.060-0.149 0.146-0.273 0.17-0.002 0.157 0.015 0.333-0.034 0.443-0.016 0.118 0.185 0.020 0.205 0.102-0.078 0.43-0.695 0.227-1.193 0.171-0.525-0.059-1.093-0.166-1.5-0.205 0.005-0.891-0.272-1.5-0.955-1.704 0.133-0.061 0.034-0.277 0-0.375-0.498 0.019-0.625-0.411-0.886-0.716-0.388 0.013-0.449-0.301-0.886-0.239 0.006-0.085-0.052-0.107-0.102-0.136 0.066-0.206 0.087-0.458 0.171-0.647-0.041-0.32-0.31-0.547-0.443-0.852-0.063-0.143-0.049-0.33-0.102-0.477-0.063-0.176-0.269-0.339-0.273-0.511-0.007-0.308 0.64-0.688 0-0.784-0.171-0.2-0.289-0.85 0-1.022-0.087 0.179-0.004 0.387 0.17 0.409 0.092-0.184-0.024-0.452-0.102-0.579 0.166-0.046 0.183-0.122 0.102-0.273-0.226-0.039-0.192 0.267-0.204 0.341-0.166-0.061-0.219-0.235-0.341-0.341 0.172-0.714-0.623-0.989-0.341-1.806 0.026-0.077 0.123-0.122 0.136-0.204 0.066-0.423-0.12-0.637-0.307-0.988 0.258-0.628 0.814-0.959 0.75-1.909z"></path>
<path fill="#999" style="fill: var(--color1, #999)" d="M47.456 8.656c0.152 0.167 0.315 0.322 0.409 0.545-0.225 0.013-0.241 0.261-0.511 0.306 0.030-0.336-0.091-0.522-0.136-0.784 0.089-0.013 0.187-0.017 0.239-0.068zM47.149 8.758c0.062 0.245 0.163 0.45 0.136 0.784-0.272 0.184-0.632 0.154-0.852 0.272-0.269 0.144-0.357 0.441-0.648 0.443 0.184-0.358-0.024-0.813-0.034-1.193 0.464-0.105 0.913-0.224 1.398-0.307zM9.546 9.985c-0.467 2.322-0.848 4.762-1.398 7.054-0.195-0.049-0.301-0.311-0.545-0.204-0.224 0.253-0.061 0.893-0.17 1.261-0.064 0.094-0.173-0.138-0.239-0.238-1.027-1.579-2.049-3.186-3.171-4.805-0.174-0.251-0.446-0.53-0.477-0.715-0.037-0.222 0.093-0.635 0.17-0.92 0.216-0.8 0.516-1.777 0.682-2.59 1.658 0.445 3.436 0.768 5.148 1.159zM44.729 10.053c-0.091 0.345-0.252 0.682-0.205 1.091 0.244 0.074 0.321 0.315 0.546 0.409-0.157 0.127-0.267 0.302-0.375 0.477-0.080 0.011-0.128 0.054-0.239 0.034-0.101 0.047-0.138 0.157-0.239 0.204-1.407 0.264-2.789 0.552-4.227 0.784-0.015-0.379-0.168-0.965-0.239-1.363-0.075-0.426-0.212-1.090-0.17-1.261 0.061-0.252 0.402-0.302 0.546-0.477v0.307c1.365-0.17 2.613-0.455 3.852-0.75 0.185-0.037 0.098 0.198 0.307 0.136 0.063 0.156 0.144 0.292 0.241 0.412l-0.002-0.003 0.205-0zM29.865 9.576c0.22 0.295-0.132 1.031 0.511 1.022-0.005 0.318 0.464 0.453 0.511 0.716 0.041 0.228-0.159 0.369-0.239 0.614-0.2 0.061-0.513 0.010-0.545 0.239-0.055 0.202 0.108 0.187 0.136 0.307-0.032 0.275-0.125 0.488-0.341 0.579v0.239c-0.163-0.008-0.146-0.194-0.273-0.239-1.204 0.069-2.417 0.129-3.716 0.102-0.072-1.030-0.43-1.774-0.716-2.59 0.11-0.106 0.107-0.325 0.136-0.511-0.077-0.094-0.181-0.159-0.136-0.375 1.593 0.002 3.154-0.028 4.671-0.102zM9.614 9.985c0.821 0.191 1.699 0.323 2.591 0.443-0.078 0.388-0.114 0.818-0.171 1.227 0.571 0.099 1.15 0.191 1.773 0.239-0.21 1.596-0.431 3.182-0.648 4.771-1.633-0.174-3.125-0.489-4.671-0.75 0.371-1.98 0.761-3.942 1.125-5.93z"></path>
<path fill="#999" style="fill: var(--color1, #999)" d="M26.217 13.87c-2.093 0.024-4.062-0.074-6.068-0.136-0.025-0.457 0.073-0.79 0.068-1.227-0.598-0.050-1.153-0.143-1.807-0.136 0.078-0.774 0.143-1.561 0.204-2.351 1.007 0.047 2.958 0.176 4.296 0.238 0.517 0.024 0.685 0.051 0.989 0.307 0.158-0.092 0.405-0.095 0.614-0.136 0.104 0.123 0.318 0.136 0.443 0.238 0.146 0.047 0.082 0.304 0.341 0.239 0.051 0.298 0.126 0.668 0.239 0.954 0.039 0.098 0.141 0.17 0.171 0.273 0.085 0.291 0.038 0.626 0.102 0.92 0.070 0.324 0.311 0.589 0.409 0.818zM45.581 10.394c0.052 0.336-0.186 0.382-0.136 0.715 0.13 0.031 0.218-0.055 0.273 0 0.216 0.869-0.2 1.354-0.443 1.943-0.104-0.063 0.039-0.162 0-0.273-0.341-0.045-0.606-0.166-0.75-0.409 0.151-0.315 0.406-0.526 0.614-0.784-0.157-0.196-0.331-0.374-0.545-0.511-0.072-0.19 0.172-0.28 0-0.477 0.16-0.056 0.096-0.336 0.205-0.443 0.259 0.082 0.513 0.169 0.784 0.239zM38.933 14.245c-0.11-0.003-0.073-0.155-0.239-0.102-0.131 0.21-0.102 0.579-0.239 0.784-0.254-0.018-0.396-0.149-0.477-0.341-0.265 0.125-0.455 0.115-0.75 0.205-0.113-0.103-0.255-0.177-0.512-0.136 0.002-0.327-0.284-0.324-0.579-0.273-0.102-1.045-0.224-2.071-0.341-3.101 0.749-0.142 1.472-0.282 2.045 0.102 0.718-0.135 1.030-0.674 1.602-0.954 0.129 0.245 0.363 1.441 0.273 1.806-0.138 0.555 0.024 1.135-0.375 1.363-0.315-0.083-0.512 0.312-0.409 0.648zM32.967 10.598c0.029 0.433 0.307 0.675 0.341 1.295 0.041 0.765 0.24 1.786 0.205 2.454-0.005 0.087-0.043 0.191-0.034 0.273 0.019 0.173 0.152 0.314 0.136 0.477-0.023 0.24-0.251 0.485-0.375 0.614 0.111 0.406-0.248 0.732-0.034 0.92-0.115 0.067-0.28 0.084-0.375 0.171-0.087 0.218 0.1 0.207 0.034 0.375-0.154-0.016-0.232-0.109-0.375-0.136-0.169 0.035-0.222 0.187-0.341 0.272-0.273-0.253-0.12-0.642-0.409-0.954-0.384-0.025-0.546-0.272-0.716-0.511 0.103-0.203 0.192-0.422 0.205-0.715-0.084-0.121-0.3-0.109-0.511-0.102-0.106-0.678-0.854-0.714-0.886-1.465 0.038-0.166 0.184-0.225 0.136-0.477 0.040-0.039 0.12-0.038 0.205-0.034 0.040-0.326 0.262-0.595 0-0.852 0.040-0.005 0.029-0.062 0.034-0.102 0.456-0.011 0.838-0.394 0.75-0.818-0.032-0.152-0.175-0.153-0.273-0.272-0.080-0.098-0-0.28-0.17-0.239 0.79-0.085 1.641-0.109 2.455-0.171z"></path>
<path fill="#999" style="fill: var(--color1, #999)" d="M35.728 11.246c0.143 1.152 0.226 2.365 0.409 3.476-0.176 0.040-0.217 0.215-0.477 0.17-0.026 0.439-0.49 0.442-0.477 0.92-0.101-0.024-0.321 0.071-0.273-0.102-0.154 0.062-0.36 0.072-0.307 0.341-0.106 0.096-0.112-0.114-0.205-0.136-0.164 0.029-0.243 0.143-0.307 0.273-0.123-0.238-0.537-0.099-0.75-0.034-0.209-0.451 0.29-0.607 0.341-1.022 0.024-0.192-0.113-0.318-0.136-0.511-0.035-0.29-0.014-0.645-0.034-0.988-0.064-1.144-0.113-1.864-0.166-2.583l0.030 0.504c0.221 0.141 0.379-0.125 0.579-0.17 0.531-0.121 1.174-0.045 1.773-0.136zM20.149 12.541c-0.105 1.588-0.205 3.181-0.273 4.805-2.323-0.109-4.509-0.355-6.648-0.648 0.239-1.579 0.397-3.239 0.682-4.771 2.008 0.276 4.068 0.501 6.239 0.614zM45.274 13.598c-0.141 0.086-0.382 0.073-0.58 0.102-0.12-0.552-0.249-1.009-0.402-1.454l0.027 0.091c0.050-0.059-0.005-0.198 0.136-0.204 0.134-0.006-0.016 0.216 0 0.273 0.043 0.148 0.139 0.153 0.273 0.341s0.144 0.539 0.443 0.545c0.022 0.115 0.024 0.248 0.102 0.307zM39.785 12.336c0.028 0.143 0.148 0.488 0.136 0.784 0.364-0.011 0.614-0.136 0.989-0.136 0.017 0.199 0.036 0.396 0.102 0.545 0.21-0.165 0.43-0.32 0.614-0.511 0.299 0.049 0.402-0.098 0.512-0.239 0.19 0.126 0.544 0.199 0.409 0.545-0.17-0.103-0.309-0.236-0.545-0.273 0.011 0.431-0.215 0.626-0.341 0.92h-0.205c-0.008 0.197-0.044 0.365-0.136 0.477-0.195 0.036-0.106-0.212-0.307-0.17-0.096 0.508-0.449 1.039-0.443 1.431-0.168 0.047-0.31 0.227-0.477 0.17-0.073 0.097-0.118 0.223-0.239 0.273-0.198-0.112-0.284-0.019-0.409 0.102-0.549-0.167-0.789-0.643-1.125-1.022v-0.239c0.118 0.027 0.131-0.051 0.239-0.034 0.074-0.233 0.106-0.507 0.17-0.75 0.13-0.050 0.007 0.152 0.136 0.102 0.061 0.004 0.072-0.042 0.136-0.034-0.104-0.32 0.062-0.453 0.17-0.647 0.546 0.044 0.58-0.714 0.614-1.295z"></path>
<path fill="#999" style="fill: var(--color1, #999)" d="M44.251 12.336c0.104 0.457 0.342 0.948 0.341 1.397 0.199 0.087 0.469-0.023 0.682-0.034 0.026 0.185-0.054 0.264-0.034 0.443-0.13 0.086-0.371 0.061-0.443 0.205-0.135-0.035-0.126-0.215-0.204-0.307-0.116 0.010-0.196 0.054-0.341 0.034-0.096-0.103-0.219-0.35-0.034-0.443-0.015-0.119-0.147-0.070-0.17-0.102 0.112-0.113 0.159-0.439-0.068-0.477 0.037-0.144 0.113-0.251 0.17-0.375-0.161-0.036-0.321 0.224-0.375 0.409 0.034 0.046 0.092 0.067 0.102 0.136-0.239 0.463 0.243 0.709 0.205 1.056-0.253-0.065-0.573-0.063-0.818-0.136-0.060-0.258 0.235-0.412 0.239-0.716-0.007-0.027-0.034-0.034-0.034-0.068-0.28 0.069-0.301 0.016-0.58-0.034-0.057-0.068 0.003-0.043 0-0.136-0.306-0.114-0.395-0.446-0.818-0.443-0.098 0.085-0.238 0.306-0.443 0.171-0.129 0.234-0.46 0.267-0.545 0.545-0.074-0.131-0.086-0.323-0.102-0.511 1.104-0.192 2.182-0.409 3.273-0.614zM29.626 13.12c0.042 0.105 0.112 0.183 0.205 0.239-0.178 0.651 0.385 1.101 0.784 1.397-0.007 0.132-0.001 0.251 0.034 0.341 0.225-0.020 0.408 0.001 0.511 0.102 0.019 0.265-0.226 0.425-0.204 0.648 0.027 0.283 0.423 0.521 0.75 0.579 0.163 0.298 0.187 0.543 0.273 0.886 0.055 0.070 0.171 0.079 0.307 0.068 0.004 0.14-0.059 0.213-0.034 0.375-0.256-0.086-0.095 0.246-0.341 0.17 0.038 0.3-0.067 0.456-0.136 0.648-0.192-0.011-0.303 0.060-0.511 0.034 0.042-0.218 0.338-0.356 0.136-0.613-1.466 0.034-2.847 0.153-4.364 0.136-0.005-1.075 0.019-2.178-0.034-3.203-0.204-0.080-0.313-0.255-0.409-0.443-0.038-0.197 0.184-0.134 0.136-0.341-0.034-0.213-0.212-0.073-0.341-0.171-0.115-0.26-0.359-0.391-0.375-0.75 1.262 0.024 2.448-0.030 3.614-0.102z"></path>
<path fill="#999" style="fill: var(--color1, #999)" d="M42.035 13.12c0.194 0.078 0.344 0.201 0.546 0.273 0.084-0.040 0.001-0.249 0.136-0.238 0.056 0.296 0.46 0.244 0.614 0.443 0.008 0.232-0.226 0.337-0.102 0.579 0.358 0.13 0.76 0.217 1.091 0.375-0.032 0.294 0.009 0.371 0.102 0.579 0.007 0.158-0.122-0.033-0.17 0.068 0.003 0.209 0.321 0.259 0.239 0.443-0.222-0.050-0.232-0.314-0.511-0.307 0.092 0.248 0.321 0.361 0.477 0.545 0.124 0.033 0.035-0.147 0.102-0.17 0.111 0.020 0.158-0.023 0.239-0.034 0.060 0.122 0.103 0.261 0.205 0.341-2.252 0.608-4.777 0.896-7.228 1.227 0.185-0.088 0.314-0.232 0.511-0.307 0.056-0.466 0.513-0.533 0.682-0.886 0.13 0.163 0.241 0.289 0.477 0.273 0.104-0.007 0.098-0.136 0.204-0.171 0.066-0.021 0.528 0.143 0.443-0.17 0.171 0.014 0.328-0.165 0.545-0.205-0.032-0.546 0.39-0.804 0.375-1.431 0.164 0.018 0.121 0.242 0.375 0.171 0.081-0.123 0.101-0.309 0.136-0.477h0.17c0.108-0.313 0.422-0.418 0.341-0.92zM43.297 13.427h0.136v0.136c-0.087-0.004-0.132-0.050-0.136-0.136zM26.66 14.109c-0.036 0.199-0.157 0.227-0.136 0.409 0.024 0.21 0.298 0.352 0.409 0.477 0.045 0.807 0.035 1.669 0.034 2.522-2.35 0.091-4.742-0.048-7.023-0.136 0.036-1.225 0.127-2.395 0.205-3.578 2.005 0.063 3.975 0.161 6.068 0.136 0.162 0.042 0.198 0.211 0.443 0.17zM44.763 15.403c-0.197-0.422 0.062-0.701 0.136-1.090 0.112 0.041 0.256-0.162 0.273 0-0.362 0.138-0.055 0.945-0.409 1.090z"></path>
<path fill="#999" style="fill: var(--color1, #999)" d="M36.683 14.722c0.256-0.041 0.399 0.033 0.512 0.136 0.113 0.011 0.129-0.075 0.205-0.102 0.060 0.042 0.18 0.025 0.204 0.102 0.171-0.011 0.144-0.22 0.341-0.204 0.030 0.163 0.133 0.253 0.307 0.273v0.375c0.278 0.177 0.333 0.576 0.682 0.682-0.172 0.373-0.654 0.437-0.716 0.92-0.671 0.564-1.942 0.508-3.205 0.579-0.605 0.034-1.101 0.197-1.636 0.136-0.076 0.015-0.014 0.168-0.034 0.239-0.455-0.023-0.772 0.091-1.227 0.068-0.001-0.114 0.135-0.092 0.205-0.136-0.010-0.222 0.086-0.398-0.034-0.545 0.051-0.051 0.144-0.061 0.17-0.136 0.176 0.040 0.298 0.134 0.477 0.17 0.12-0.144-0.057-0.283-0.034-0.443 0.116-0.054 0.248-0.093 0.375-0.136-0.147-0.233-0.020-0.315 0.102-0.511 0.293-0.034 0.534-0.126 0.716 0.068 0.12-0.050 0.143-0.197 0.239-0.272 0.155-0.018 0.091 0.182 0.239 0.17 0.159 0.011 0.063-0.232 0.136-0.307 0.159-0.044 0.261 0.078 0.512 0.034-0.013-0.456 0.446-0.44 0.443-0.886 0.233-0.029 0.363-0.16 0.545-0.239 0.032-0.156-0.085-0.165-0.068-0.307 0.296-0.058 0.534-0.032 0.545 0.273zM8.455 15.983c1.55 0.256 3.041 0.572 4.671 0.75-0.229 2.338-0.633 4.502-0.886 6.816-0.691-0.116-1.411-0.203-2.114-0.307-1.133-0.719-2.333-1.371-3.477-2.079 0.030-0.299 0.557-0.102 0.477-0.511 0.003-0.105-0.103-0.102-0.205-0.102 0.061-0.064 0.025-0.225 0.034-0.341 0.287-0.134 0.301-0.54 0.443-0.818 0.13-0.040 0.26-0.081 0.341-0.17-0.083-0.303-0.214-0.559-0.307-0.852 0.168-0.378 0.069-1.021 0.17-1.465 0.226-0.085 0.301 0.142 0.477 0.205 0.369-0.131 0.274-0.726 0.375-1.125zM44.967 16.119c0.139 0.122 0.192 0.33 0.273 0.511-0.296-0.23-0.677 0.101-0.852 0.307 0.215 0.050 0.369-0.042 0.545-0.136 0.099 0.078 0.173 0.077 0.239-0.034 0.102 0.080 0.19 0.173 0.205 0.341-0.105 0.156-0.242 0.28-0.307 0.477-0.18 0.039-0.253 0.015-0.443 0-0.034 0.114 0.047 0.112 0.136 0.102-0.026 0.144-0.062 0.27-0.107 0.39l0.005-0.015c0.127 0.032 0.239 0.080 0.375 0.102-0.053 0.106-0.101 0.217-0.17 0.307-0.71-0.023-1.099 0.555-1.261 1.193-0.222-0.018-0.357 0.052-0.477 0.136-0.675-0.353-1.16-1.233-2.352-0.818-0.117-0.088-0.174-0.235-0.307-0.307-1.409-0.125-1.945 0.623-3.239 0.613v-0.239c0.096-0.018 0.177-0.050 0.273-0.068v-0.239c0.369-0.119 0.587-0.39 0.955-0.511-0.048-0.23 0.106-0.257 0.17-0.375 0.1-0.009 0.105 0.077 0.205 0.068 0.086-0.129 0.164-0.295 0.375-0.205 0.111-0.105 0.058-0.373 0.307-0.341v-0.307c1.94-0.196 3.717-0.556 5.455-0.954zM18.921 17.346c-0.203 1.966-0.315 4.024-0.511 5.998-1.266-0.018-2.354-0.214-3.546-0.307-0.219 0.018 0.018 0.327-0.102 0.307-0.504-0.098-1.058-0.146-1.568-0.239-0.084 0.133-0.055 0.377-0.102 0.545-0.262-0.034-0.542-0.049-0.784-0.102 0.254-2.302 0.656-4.455 0.886-6.782 1.855 0.247 3.718 0.486 5.728 0.579z"></path>
<path fill="#999" style="fill: var(--color1, #999)" d="M39.445 17.039c0.061 0.334-0.241 0.305-0.239 0.579-0.144-0.010-0.364 0.053-0.409 0.239-0.060-0.008-0.078-0.059-0.068-0.136-0.152 0.11-0.357 0.166-0.341 0.443-0.342 0.158-0.605 0.395-0.955 0.545v0.205c-0.098 0.027-0.181 0.069-0.273 0.102v0.307c-1.881 0.175-3.742 0.371-5.693 0.477 0.188-0.071 0.060-0.356 0.034-0.511 0.070-0.033 0.135-0.070 0.205-0.102-0.014-0.502 0.31-0.667 0.273-1.193 0.529 0.040 0.895-0.082 1.398-0.068 0.076-0.015 0.014-0.168 0.034-0.239 1.961-0.131 4.236-0.24 6.034-0.648zM18.989 17.38c2.557 0.152 5.293 0.292 7.978 0.205 0.122 1.298 0.278 2.562 0.205 4.055-0.283-0.080-0.51-0.218-0.682-0.409-0.098 0.004-0.059 0.145-0.171 0.136-0.266-0.097-0.671-0.067-0.886 0.17-0.193-0.125-0.594-0.042-0.648-0.307-0.128 0.054-0.132 0.232-0.239 0.307-0.309-0.089-0.491-0.435-0.784-0.17 0.073-0.313-0.216-0.056-0.171-0.341-0.381-0.003-0.598-0.024-1.057-0.136-0.012-0.506-0.566-0.028-0.784-0.443 0.004-0.825 0.101-1.558 0.102-2.386-0.99-0.010-1.918-0.082-2.864-0.136v-0.545z"></path>
<path fill="#999" style="fill: var(--color1, #999)" d="M18.887 17.994c0.968 0.044 1.897 0.126 2.898 0.136 0.011 0.795-0.15 1.598-0.068 2.351 0.154 0.219 0.462 0.352 0.648 0.205 0.093 0.032 0.078 0.172 0.102 0.272 0.417 0.021 0.718 0.248 0.989 0.136 0.111 0.122 0.25 0.178 0.239 0.341 0.413-0.2 0.478 0.090 0.852 0.171 0.13 0.005 0.111-0.139 0.171-0.204 0.199 0.085 0.464 0.104 0.648 0.204 0.193 0.045 0.169-0.126 0.273-0.17 0.357-0.095 0.606 0.104 0.818-0.102 0.323 0.221 0.742 0.519 1.159 0.443-0.004 0.64 0.030 1.242 0.068 1.84 0.208 0.493 0.801 1.233 0.307 1.806 0.143 0.26-0.060 0.694-0.068 1.022-0.356 0.041-0.567 0.229-0.852 0.341-0.588 0.718-1.559 1.055-2.318 1.602-0.203 0.436-0.726 0.889-0.716 1.499 0.006 0.364 0.249 0.767 0.273 1.090-0.085-0.006-0.107 0.052-0.136 0.102-0.158-0.035-0.255-0.131-0.341-0.238-0.143-0.078-0.314 0.026-0.443 0-0.162-0.033-0.21-0.178-0.341-0.239-0.269-0.125-0.595-0.096-0.784-0.307-0.064-0.521-0.457-0.774-0.307-1.261-0.022-0.16-0.212-0.152-0.307-0.239-0.219-0.19-0.235-0.583-0.545-0.682-0.173-0.826-0.603-1.396-1.091-1.908-0.353-0.033-0.757-0.016-0.955-0.205-0.614 0.079-0.599 0.787-1.023 1.056-0.471-0.401-1.112-0.485-1.364-1.022-0.088-0.187-0.024-0.387-0.068-0.613-0.142-0.733-0.94-0.918-1.159-1.534-0.068-0.046-0.162-0.065-0.239-0.102-0.008-0.333-0.33-0.352-0.375-0.648 1.152 0.007 2.327 0.286 3.614 0.273 0.213-1.741 0.351-3.557 0.443-5.419z"></path>
<path fill="#999" style="fill: var(--color1, #999)" d="M31.399 18.13c0.006 0.256-0.229 0.271-0.239 0.511 0.163 0.093 0.43-0.001 0.613 0-0.174 0.155-0.046 0.613-0.375 0.613 0.011 0.148 0.089 0.229 0.102 0.375-0.001 0.112-0.097 0.13-0.205 0.136 0.010 0.367-0.39 0.412-0.239 0.818-0.238 0.017-0.408 0.332-0.307 0.477-0.071 0.019-0.097 0.085-0.205 0.068-0.084 0.483 0.001 0.741 0.068 1.159-0.93 0.070-1.922 0.078-2.932 0.068v-0.613c-0.161-0.143-0.275 0.046-0.443-0.034-0.005-1.221 0.058-2.512-0.171-3.51 1.485 0.063 3.008-0.196 4.33-0.068zM40.433 18.743c0.051 0.12 0.235 0.106 0.205 0.307 0.442 0.033 0.76-0.159 1.091-0.102 0.531 0.090 0.818 0.711 1.296 0.852-0.235 0.242-0.488 0.466-0.443 0.988-0.084 0.030-0.148 0.079-0.136 0.204-0.46 0.131-0.46 0.722-0.989 0.784 0.079 0.33-0.2 0.533-0.512 0.579-0.144-0.174-0.093-0.542-0.409-0.545-0.027-0.246-0.16-0.386-0.239-0.579-0.544-0.149-0.617-0.769-1.193-0.886-0.14-0.19-0.24-0.419-0.375-0.613-0.256 0.017-0.353-0.124-0.512-0.205 0.333-0.667 1.228-0.772 2.216-0.784z"></path>
<path fill="#999" style="fill: var(--color1, #999)" d="M38.319 19.221c-0.033 0.125-0.184 0.134-0.17 0.306 0.128 0.144 0.248 0.297 0.545 0.273 0.226 0.66 0.972 0.8 1.261 1.397 0.106 0.041 0.213 0.083 0.307 0.136 0.069 0.169 0.185 0.292 0.205 0.511 0.056 0.058 0.185 0.042 0.239 0.102 0.021 0.138 0.118 0.2 0.102 0.375 0.060 0.088 0.175 0.121 0.341 0.102-0.248 0.424-0.411 0.986-0.375 1.636-0.262 0.037-0.473-0.151-0.648 0-0.044 0.204 0.163 0.336 0.034 0.511-0.142 0.028-0.017-0.21-0.102-0.238-0.911 0.066-1.806 0.149-2.761 0.17-0.334-0.392-0.493-1.197-0.273-1.772-0.206-0.433-0.42-0.888-0.58-1.465-0.161-0.585-0.289-1.192-0.443-1.772 0.784-0.080 1.575-0.152 2.318-0.272z"></path>
<path fill="#999" style="fill: var(--color1, #999)" d="M35.933 19.527c0.241 0.801 0.394 1.684 0.648 2.454 0.057 0.174 0.196 0.316 0.273 0.477 0.042 0.088-0.042 0.225 0.102 0.238-0.264 0.39 0.032 0.802-0.068 1.261 0.001 0.136 0.174 0.098 0.136 0.272-0.953 0.024-1.76 0.195-2.659 0.273-0.047 0.399 0.373 0.332 0.239 0.818-0.155 0.027-0.238 0.126-0.409 0.136 0.022-0.046 0.073-0.064 0.136-0.068-0.073-0.177-0.127-0.373-0.273-0.477-0.173 0.032-0.12 0.289-0.204 0.409-0.030-0.026-0.077-0.037-0.136-0.034-0.456-1.508-0.121-3.755-0.273-5.521 0.749-0.16 1.681-0.137 2.489-0.239z"></path>
<path fill="#999" style="fill: var(--color1, #999)" d="M33.308 19.732c0.235 0.259 0.151 0.664 0.136 0.988-0.072 1.585-0.075 3.217 0.136 4.669-0.453-0.028-0.949-0.138-1.091 0.238-0.133-0.151-0.177-0.391-0.341-0.511-0.020-0.19 0.078-0.263 0.068-0.443-0.567-0.031-1.304 0.058-1.943 0.068-0.055-0.789 0.525-1.024 0.546-1.636-0.117-0.167-0.183-0.385-0.239-0.613-0.049-0.151 0.115-0.089 0.102-0.205-0.031-0.447-0.143-0.603-0.068-1.022 0.008-0.106 0.121-0.106 0.205-0.136-0.040-0.216 0.013-0.237 0.068-0.409 0.048-0.065 0.166-0.062 0.239-0.102-0.141-0.395 0.213-0.427 0.239-0.75 0.701-0.014 1.374-0.063 2.037-0.146l-0.094 0.010z"></path>
<path fill="#999" style="fill: var(--color1, #999)" d="M30.512 22.356c0.038 0.367 0.078 0.595 0.239 0.784 0.020 0.089-0.014 0.123-0.102 0.102-0.036 0.127 0.085 0.097 0.068 0.204-0.285 0.34-0.534 0.716-0.512 1.363 0.649-0.022 1.297-0.044 1.909-0.102-0.157 0.367 0.228 0.702 0.239 0.988-0.043 0.104-0.195 0.1-0.239 0.205 0.018 0.129 0.145 0.15 0.273 0.17 0.113-0 0.035-0.192 0.102-0.238 0.117 0.046 0.221 0.156 0.17 0.273-0.055 0.058-0.143 0.085-0.273 0.068 0.011 0.125-0.038 0.189-0.068 0.273 0.183 0.203 0.602 0.171 0.784 0.375-0.197 0.422-0.467-0.156-0.818-0.102-0.027-0.064-0.057-0.125-0.068-0.204-0.106-0.004-0.097 0.107-0.239 0.068 0.036 0.199-0.015 0.253-0.068 0.409-0.15 0.014-0.089-0.184-0.205-0.205-0.178 0.072-0.319 0.181-0.443 0.307-0.248-0.014-0.366-0.157-0.58-0.204-0.018-0.121 0.121-0.084 0.102-0.205-0.043-0.128-0.227-0.114-0.375-0.136 0.020-0.122-0.040-0.165-0.068-0.239-0.282 0.043-0.379-0.122-0.614 0.034 0.028 0.086 0.045 0.183 0.171 0.171-0.566 0.267-1.206-0.456-1.875-0.102 0.069-0.368 0.007-1.036 0.239-1.295 0.127-0.494-0.181-0.722-0.307-0.988-0.079-0.167 0.002-0.383-0.205-0.477-0.056-0.376-0.005-0.858-0.068-1.227 0.965-0.001 1.953 0.021 2.83-0.068zM5.625 23.821c0.079 0.075 0.113-0.087 0.273-0.034 0.006 0.267 0.197 0.349 0.512 0.307 0.254 0.208 0.512 0.218 0.818 0.341 0.127 0.036 0.097-0.085 0.204-0.068 0.178 0.038 0.256 0.175 0.443 0.204v4.737c0.115 0.158 0.322 0.007 0.477 0 0.030 0.346 0.41 0.34 0.443 0.682 0.121-0.004 0.124-0.126 0.273-0.102-0.030-0.235 0.106-0.303 0.273-0.341 0.364 0.488 0.8 0.904 1.091 1.465 0.166 0.061 0.342 0.112 0.511 0.171 0.123 0.223 0.11 0.526-0.034 0.715-0.098-0.163-0.236-0.286-0.443-0.341-0.069 0.082 0.087 0.229 0.034 0.409-0.103-0.126-0.135-0.010-0.239 0.034-0.137-0.215-0.173-0.531-0.341-0.716-0.11-0.042-0.026 0.11-0.136 0.068-0.161 0.016-0.21-0.207-0.307-0.341s-0.383-0.466-0.341-0.648c-0.315-0.185-0.487-0.512-0.886-0.613-0.075-0.072 0.044-0.101 0.034-0.205-0.461 0.050-1.1-0.185-1.568-0.341-0.045-0.136-0.088-0.275-0.205-0.341-0.187-0.028-0.204 0.114-0.375 0.102v0.409c-0.069-0.13-0.213 0.015-0.307-0.102-0.233 0.097-0.354 0.487-0.716 0.341 0.010-0.137 0.245-0.050 0.239-0.204-0.005-0.076-0.086 0.044-0.17 0-0.005-0.199 0.285-0.282 0.17-0.477 0.178-0.115 0.219-0.119 0.443-0.068 0.037-0.127-0.085-0.097-0.068-0.204-0.549-0.038-0.638 0.385-0.852 0.681-0.202-0.009-0.324 0.063-0.375 0.205-0.024 0.126 0.146 0.059 0.17 0.136-0.119 0.472-0.727 0.455-0.989 0.784-0.252 0.020-0.476 0.070-0.648 0.17 0.092 0.1 0.096 0.066 0.034 0.205-0.365-0.201-0.64 0.206-0.955 0-0.162 0.174-0.4 0.061-0.546 0.238-0.172-0.109-0.381-0.025-0.511-0.034-0.042-0.145 0.113-0.091 0.136-0.17 0.477 0.118 0.639-0.145 0.989-0.239 0.107-0.016 0.133 0.048 0.205 0.068 0.176-0.121 0.442-0.291 0.682-0.238 0.053-0.152 0.152-0.257 0.341-0.273 0.082-0.247 0.209-0.45 0.341-0.648-0.066-0.086-0.208 0.040-0.307 0.034 0.005-0.085 0.006-0.166-0.068-0.17-0.179-0.053-0.022 0.228-0.171 0.204 0.027-0.118-0.051-0.131-0.034-0.238-0.127-0.015-0.148-0.034-0.239-0.136-0.185-0.037-0.227 0.069-0.375 0.068 0.081-0.093 0.068-0.206 0.034-0.341 0.030-0.026 0.077-0.037 0.136-0.034-0.017-0.12-0.051-0.222-0.034-0.375-0.069-0.017-0.359 0.094-0.511 0 0.023-0.204-0.080-0.283-0.136-0.409 0.054-0.094 0.123-0.173 0.171-0.273-0.003-0.127-0.133-0.002-0.136-0.068-0.119-0.501 0.438-0.602 0.648-0.886 0.147-0.033 0.060 0.167 0.171 0.17 0.148 0.011 0.226-0.047 0.273-0.136 0.403 0.275 0.441-0.305 0.545-0.545-0.347-0.083-0.899-0.016-1.159-0.341-0.002-0.127 0.034-0.216 0.068-0.306-0.021-0.15-0.216-0.125-0.205-0.307 0.387-0.008 0.579-0.174 0.954-0.102-0 0.102-0.088 0.116-0.102 0.205 0.121 0.123 0.356 0.256 0.58 0.17-0.012-0.179-0.232-0.301-0.136-0.477-0.027-0.086-0.14-0.087-0.205-0.136 0.107-0.339-0.158-0.588-0.307-0.784 0.144-0.247 0.367-0.045 0.579-0.102 0.173-0.047 0.256-0.437 0.546-0.477 0.028-0.004 0.077 0.054 0.136 0.034 0.203-0.069 0.28-0.207 0.614-0.136 0.189-0.259 0.544-0.094 0.546 0.17zM40.808 24.128c0.208 1.053 0.756 1.766 1.33 2.454 0.086 0.083-0.072 0.073-0.034 0.204 0.378 0.928 1.119 1.494 1.023 2.897-0.096 0.107-0.263 0.394-0.102 0.545-0.109 0.296-0.607 0.361-0.852 0.409-0.062-0.416-0.23-0.906-0.716-0.784-0.241-0.191-0.221-0.642-0.546-0.75-0.072-0.11 0.020-0.384-0.102-0.443-0.157-0.032-0.065 0.184-0.136 0.238-0.135-0.094-0.255-0.356-0.375-0.511-0.037-0.048-0.235-0.204-0.239-0.239-0.018-0.188 0.307-0.253 0.273-0.511-0.027-0.114-0.275-0.135-0.375-0.068 0.086 0.12 0.172 0.13 0.102 0.341-0.322-0.321-0.107-0.819-0.136-1.363-0.063-0.153-0.198-0.233-0.239-0.409-0.148-0-0.216-0.079-0.375-0.068-0.352-0.356-0.695-1.033-1.398-0.818-0.177 0.323-0.515 0.485-0.92 0.579-0.328-0.69-1.514-0.868-2.318-0.511 0.125-0.466-0.209-0.472-0.239-0.784 0.932-0.011 1.656-0.23 2.591-0.238 0.116 0.043 0.157 0.161 0.205 0.272 0.969-0.020 1.886-0.092 2.795-0.17-0.026 0.174 0.014 0.282 0.205 0.238 0.141-0.165-0.084-0.437 0-0.545 0.144-0.062 0.343 0.079 0.58 0.034zM13.126 27.774c0.015 0.162-0.041 0.255-0.102 0.341-0.187 0.006-0.281-0.082-0.409-0.136-0.005-0.228 0.308-0.296 0.512-0.205zM12.273 28.013c-0.048 0.088-0.080 0.193-0.205 0.204 0.050-0.087 0.065-0.208 0.205-0.204zM14.625 28.354c0.152 0.144 0.22 0.371 0.375 0.511-0.218 0.040-0.3-0.134-0.477-0.034-0.055-0.116-0.159-0.182-0.171-0.341 0.11-0.026 0.202-0.071 0.273-0.136zM15.478 28.967c0.247 0.039 0.347 0.015 0.614 0.034-0.102 0.24-0.399 0.061-0.648 0.068-0.006-0.029 0.013-0.032 0.034-0.034v-0.068zM16.16 29.171c0.216 0.137 0.593 0.111 0.75 0.307-0.204 0.441-0.849 0.042-0.75-0.307zM15.717 29.342c0.076-0.096 0.258-0.010 0.272 0.068-0.024 0.067-0.091 0.091-0.17 0.102-0.040-0.051-0.043-0.139-0.102-0.17zM17.080 30.092c0.256 0.119 0.5 0.25 0.784 0.341 0.132 0.175 0.139 0.474 0.409 0.511-0.208 0.419-0.817 0.244-0.954 0.75-0.106-0.053-0.224-0.095-0.273-0.204 0.072-0.317-0.051-0.565-0.17-0.784 0.072-0.11 0.163-0.2 0.269-0.27l0.003-0.002c0.019-0.151-0.18-0.205-0.068-0.341z"></path>
<path fill="#fff" style="fill: var(--color3, #fff)" d="M4.8 16.229c-0.63 0-1.143 0.503-1.143 1.122 0 0.88 1.035 1.787 1.080 1.826 0.017 0.015 0.039 0.024 0.063 0.024s0.046-0.009 0.063-0.024l-0 0c0.044-0.038 1.080-0.946 1.080-1.826 0-0.619-0.513-1.122-1.143-1.122zM4.8 17.962c-0.35 0-0.635-0.278-0.635-0.619s0.285-0.619 0.635-0.619 0.635 0.278 0.635 0.619-0.285 0.619-0.635 0.619z"></path>
<symbol id="icon-button-1" viewBox="0 0 44 32">
<path fill="#fff" style="fill: var(--color1, #fff)" d="M0 0h43.683v32h-43.683z"></path>
<path fill="#009eff" style="fill: var(--color2, #009eff)" d="M29.484 19.246c-0.052-0.143-0.186-0.243-0.343-0.243-0.045 0-0.089 0.008-0.129 0.024l0.003-0.001-3.802 1.425c-0.141 0.055-0.239 0.19-0.239 0.348 0 0.046 0.008 0.090 0.024 0.131l-0.001-0.003c0.052 0.142 0.187 0.242 0.344 0.242 0.045 0 0.088-0.008 0.128-0.023l-0.003 0.001 3.802-1.425c0.141-0.055 0.24-0.19 0.24-0.348 0-0.046-0.008-0.090-0.024-0.131l0.001 0.003zM24.636 21.063c-0.052-0.142-0.186-0.242-0.343-0.242-0.045 0-0.089 0.008-0.129 0.023l0.003-0.001-0.161 0.060c-0.141 0.055-0.239 0.19-0.239 0.348 0 0.046 0.008 0.090 0.024 0.131l-0.001-0.003c0.052 0.142 0.187 0.242 0.344 0.242 0.045 0 0.088-0.008 0.128-0.023l-0.003 0.001 0.161-0.061c0.141-0.055 0.239-0.19 0.239-0.348 0-0.046-0.008-0.090-0.023-0.131l0.001 0.003zM29.484 17.733c-0.051-0.143-0.185-0.243-0.343-0.243-0.046 0-0.089 0.008-0.129 0.024l0.003-0.001-3.004 1.126c-0.141 0.055-0.239 0.19-0.239 0.348 0 0.046 0.008 0.091 0.024 0.131l-0.001-0.003c0.052 0.142 0.187 0.242 0.344 0.242 0.045 0 0.088-0.008 0.128-0.023l-0.003 0.001 3.004-1.126c0.141-0.055 0.239-0.19 0.239-0.348 0-0.046-0.008-0.091-0.024-0.132l0.001 0.003zM29.484 16.236c-0.051-0.143-0.185-0.243-0.343-0.243-0.046 0-0.089 0.008-0.129 0.024l0.003-0.001-3.004 1.126c-0.141 0.055-0.239 0.19-0.239 0.348 0 0.046 0.008 0.090 0.024 0.131l-0.001-0.003c0.052 0.142 0.187 0.242 0.344 0.242 0.045 0 0.088-0.008 0.128-0.023l-0.003 0.001 3.004-1.126c0.141-0.055 0.239-0.19 0.239-0.348 0-0.046-0.008-0.091-0.024-0.132l0.001 0.003z"></path>
<path fill="#999" style="fill: var(--color3, #999)" d="M30.73 9.443l-8.811-3.303c-0.038-0.014-0.081-0.023-0.126-0.023s-0.089 0.008-0.129 0.024l0.002-0.001-8.81 3.303c-0.141 0.055-0.239 0.19-0.239 0.348 0 0 0 0 0 0v-0 10.624c0 0.155 0.095 0.295 0.239 0.348l8.81 3.302c0.038 0.014 0.081 0.023 0.126 0.023s0.089-0.008 0.129-0.024l-0.003 0.001 8.811-3.302c0.141-0.055 0.239-0.189 0.239-0.346 0-0.001 0-0.001 0-0.002v0-10.623c0-0.001 0-0.001 0-0.002 0-0.157-0.098-0.292-0.236-0.346l-0.003-0.001zM21.427 23.182l-8.079-3.027v-9.832l1.645 0.617v4.499c0 0.155 0.095 0.295 0.239 0.348l3.948 1.48c0.037 0.014 0.081 0.023 0.126 0.023 0.078 0 0.151-0.025 0.21-0.067l-0.001 0.001c0.096-0.068 0.157-0.179 0.157-0.304 0-0 0-0 0-0v0-4.224l1.754 0.658v9.831zM18.941 12.419v3.966l-3.217-1.205v-3.966l3.217 1.205zM16.414 10.678l2.892-1.083 2.892 1.083-2.892 1.084-2.893-1.084zM21.792 12.696l-1.433-0.537 3.022-1.133c0.141-0.055 0.239-0.189 0.239-0.347 0-0.001 0-0.001 0-0.002v0c0-0.001 0-0.001 0-0.002 0-0.157-0.098-0.292-0.236-0.346l-0.003-0.001-3.948-1.48c-0.038-0.015-0.081-0.023-0.127-0.023s-0.089 0.008-0.129 0.024l0.002-0.001-3.826 1.434-1.316-0.493 7.754-2.907 7.755 2.906-7.755 2.906zM30.237 20.154l-8.079 3.028v-9.831l8.079-3.028v9.831z"></path>
</symbol>
<symbol id="icon-button-2" viewBox="0 0 44 32">
<path fill="#fff" style="fill: var(--color1, #fff)" d="M0 0h43.683v32h-43.683z"></path>
<path fill="#999" style="fill: var(--color3, #999)" d="M27.956 6.117h-11.562c-0.185 0-0.336 0.16-0.336 0.358v17.254c0 0.198 0.151 0.358 0.336 0.358h8.791c0.094-0.001 0.178-0.041 0.238-0.105l0-0 2.771-2.948c0.061-0.066 0.099-0.154 0.099-0.252 0-0 0-0.001 0-0.001v0-14.306c0-0.198-0.151-0.358-0.337-0.358zM25.521 22.865l-0.001-1.729 1.624 0.002-1.623 1.727zM27.62 20.423l-2.436-0.003c-0.094 0.001-0.178 0.041-0.238 0.105l-0 0c-0.061 0.066-0.099 0.155-0.099 0.252 0 0 0 0.001 0 0.001v-0l0.003 2.592h-8.118v-16.537h10.889v13.589z"></path>
<path fill="#00a0ff" style="fill: var(--color4, #00a0ff)" d="M19.505 19.032c-0.846 0-1.534 0.731-1.534 1.632s0.688 1.633 1.534 1.633c0.846 0 1.534-0.732 1.534-1.633s-0.688-1.633-1.534-1.633zM19.505 21.581c-0.475 0-0.862-0.411-0.862-0.917s0.386-0.916 0.861-0.916c0.475 0 0.861 0.411 0.861 0.916s-0.386 0.917-0.861 0.917z"></path>
<path fill="#999" style="fill: var(--color3, #999)" d="M23.89 20.364h-1.85c-0.186 0-0.337 0.16-0.337 0.358s0.151 0.358 0.337 0.358h1.85c0.186 0 0.337-0.16 0.337-0.358 0-0.198-0.151-0.358-0.337-0.358zM19.383 8.265h-0.975c-0.186 0-0.336 0.161-0.336 0.358s0.15 0.358 0.336 0.358h0.975c0.186 0 0.337-0.161 0.337-0.358s-0.151-0.358-0.337-0.358z"></path>
<path fill="#00a0ff" style="fill: var(--color4, #00a0ff)" d="M26.077 8.265h-2.927c-0.186 0-0.336 0.161-0.336 0.358s0.151 0.358 0.336 0.358h2.926c0.186 0 0.337-0.161 0.337-0.358s-0.151-0.358-0.337-0.358zM26.077 9.804h-4.979c-0.185 0-0.336 0.161-0.336 0.358s0.151 0.358 0.336 0.358h4.978c0.186 0 0.337-0.161 0.337-0.358s-0.151-0.358-0.337-0.358z"></path>
<path fill="#999" style="fill: var(--color3, #999)" d="M26.094 12.632h-7.837c-0.186 0-0.337 0.161-0.337 0.358s0.151 0.358 0.336 0.358h7.837c0.186 0 0.337-0.161 0.337-0.358s-0.151-0.358-0.336-0.358zM26.094 13.849h-7.837c-0.186 0-0.337 0.161-0.337 0.358s0.151 0.358 0.336 0.358h7.837c0.186 0 0.337-0.161 0.337-0.358s-0.151-0.358-0.336-0.358zM26.094 15.174h-7.837c-0.186 0-0.337 0.161-0.337 0.358s0.151 0.358 0.336 0.358h7.837c0.186 0 0.337-0.161 0.337-0.358s-0.151-0.358-0.336-0.358zM26.094 16.391h-0.185c-0.186 0-0.336 0.16-0.336 0.358s0.151 0.358 0.336 0.358h0.185c0.186 0 0.337-0.16 0.337-0.358s-0.151-0.358-0.337-0.358zM24.731 16.391h-6.475c-0.185 0-0.336 0.16-0.336 0.358s0.151 0.358 0.336 0.358h6.476c0.185 0 0.336-0.16 0.336-0.358s-0.151-0.358-0.337-0.358z"></path>
</symbol>
<symbol id="icon-button-3" viewBox="0 0 44 32">
<path fill="#fff" style="fill: var(--color1, #fff)" d="M0 0h44.19v32h-44.19z"></path>
<path fill="#009eff" style="fill: var(--color2, #009eff)" d="M30.407 7.753l-1.087-1.080c-0.709-0.704-1.904-0.745-2.664-0.091l-1.91 1.645c-0.024 0.021-0.045 0.045-0.062 0.072l-0.001 0.001-1.86 3.078-1.195 0.395c-0.124 0.040-0.211 0.154-0.211 0.289 0 0.085 0.035 0.161 0.091 0.216l0 0 3.256 3.232c0.056 0.055 0.132 0.089 0.216 0.089 0.134 0 0.249-0.086 0.29-0.206l0.001-0.002 0.398-1.187 3.144-1.885c0.028-0.017 0.052-0.038 0.073-0.062l0-0 1.617-1.861c0.656-0.753 0.612-1.938-0.096-2.642zM30.040 9.998l-1.585 1.824-3.199 1.918c-0.062 0.037-0.108 0.095-0.131 0.162l-0.001 0.002-0.278 0.825-2.553-2.535 0.83-0.275c0.071-0.024 0.128-0.070 0.165-0.131l0.001-0.001 1.894-3.132 1.874-1.613c0.521-0.449 1.341-0.422 1.827 0.061l1.087 1.080c0.487 0.484 0.517 1.297 0.068 1.814z"></path>
<path fill="#999" style="fill: var(--color3, #999)" d="M29.537 18.363c-0.613-0.607-1.456-0.982-2.388-0.982-0.372 0-0.73 0.060-1.065 0.17l0.024-0.007-6.522-6.478c0.104-0.309 0.164-0.665 0.164-1.034 0-0.927-0.378-1.766-0.988-2.37l-0-0c-0.613-0.608-1.457-0.983-2.388-0.983-0.443 0-0.867 0.085-1.255 0.24l0.023-0.008c-0.114 0.046-0.194 0.155-0.194 0.284 0 0.084 0.034 0.16 0.089 0.215v0l1.952 1.939-1.302 1.293-1.952-1.939c-0.056-0.055-0.132-0.089-0.217-0.089-0.129 0-0.239 0.079-0.285 0.192l-0.001 0.002c-0.147 0.363-0.233 0.784-0.233 1.225 0 0.927 0.378 1.766 0.988 2.371l0 0c0.613 0.607 1.457 0.982 2.388 0.982 0.372 0 0.73-0.060 1.065-0.17l-0.024 0.007 2.439 2.423-3.037 3.016-1.931 1.072c-0.054 0.030-0.097 0.075-0.124 0.128l-0.001 0.002-0.868 1.724c-0.059 0.117-0.036 0.259 0.058 0.352l1.085 1.078c0.056 0.055 0.132 0.089 0.217 0.089 0.050 0 0.097-0.012 0.139-0.033l-0.002 0.001 1.736-0.862c0.055-0.028 0.1-0.070 0.13-0.122l0.001-0.002 1.080-1.918 3.037-3.016 2.564 2.547c-0.104 0.309-0.164 0.664-0.164 1.034 0 0.927 0.378 1.766 0.989 2.371l0 0c0.612 0.607 1.455 0.982 2.386 0.982 0.001 0 0.002 0 0.003 0h-0c0.443-0 0.867-0.085 1.255-0.24l-0.023 0.008c0.115-0.046 0.194-0.155 0.194-0.284 0-0.084-0.034-0.16-0.089-0.215v0l-1.952-1.939 1.302-1.293 1.952 1.939c0.056 0.055 0.132 0.089 0.217 0.089 0.129 0 0.239-0.079 0.285-0.192l0.001-0.002c0.147-0.363 0.232-0.783 0.232-1.223 0-0.927-0.378-1.767-0.989-2.372l-0-0zM17.873 19.767c-0.020 0.019-0.036 0.041-0.050 0.065l-0.001 0.001-1.054 1.874-1.454 0.722-0.772-0.767 0.727-1.444 1.886-1.047c0.026-0.014 0.048-0.031 0.067-0.051l0-0 3.067-3.046 0.651 0.647-3.067 3.046zM29.86 21.269l-1.804-1.791c-0.056-0.055-0.132-0.089-0.217-0.089s-0.161 0.034-0.217 0.089l0-0-1.736 1.724c-0.055 0.055-0.090 0.131-0.090 0.216s0.034 0.161 0.090 0.216l0 0 1.804 1.791c-0.162 0.034-0.348 0.053-0.538 0.053-0.762 0-1.453-0.307-1.954-0.804l0 0c-0.5-0.495-0.809-1.181-0.809-1.94 0-0.361 0.070-0.705 0.197-1.020l-0.007 0.018c0.013-0.033 0.021-0.071 0.021-0.111 0-0.084-0.034-0.16-0.090-0.215l-0-0-6.796-6.75c-0.056-0.055-0.132-0.089-0.217-0.089-0.040 0-0.079 0.008-0.114 0.022l0.002-0.001c-0.299 0.12-0.645 0.189-1.008 0.189-0.762 0-1.453-0.307-1.955-0.804l0 0c-0.5-0.495-0.81-1.182-0.81-1.941 0-0.189 0.019-0.374 0.056-0.552l-0.003 0.018 1.804 1.792c0.056 0.055 0.132 0.089 0.217 0.089s0.161-0.034 0.217-0.089l-0 0 1.736-1.724c0.055-0.055 0.090-0.131 0.090-0.215s-0.034-0.16-0.090-0.215l-0-0-1.804-1.792c0.162-0.034 0.348-0.053 0.539-0.053 0.762 0 1.452 0.307 1.954 0.804l-0-0c0.5 0.495 0.809 1.181 0.809 1.94 0 0.361-0.070 0.705-0.197 1.020l0.007-0.018c-0.013 0.033-0.021 0.071-0.021 0.111 0 0.084 0.034 0.16 0.090 0.215l0 0 6.796 6.75c0.086 0.085 0.215 0.112 0.329 0.068 0.299-0.12 0.645-0.189 1.008-0.189 0.762 0 1.453 0.307 1.955 0.804l-0-0c0.5 0.495 0.809 1.182 0.809 1.941 0 0.189-0.019 0.373-0.056 0.552l0.003-0.018z"></path>
</symbol>
<symbol id="icon-button-4" viewBox="0 0 44 32">
<path fill="#fff" style="fill: var(--color1, #fff)" d="M0 0h44.19v32h-44.19z"></path>
<path fill="none" stroke="#999" style="stroke: var(--color3, #999)" stroke-linejoin="miter" stroke-linecap="butt" stroke-miterlimit="4" stroke-width="0.5079" d="M14.222 9.651h10.404c1.823 0 3.302 1.478 3.302 3.302s-1.478 3.302-3.302 3.302v0h-7.102c-1.823 0-3.302 1.478-3.302 3.302s1.478 3.302 3.302 3.302v0h10.921"></path>
<path fill="#fff" style="fill: var(--color1, #fff); stroke: var(--color2, #009eff)" stroke="#009eff" stroke-linejoin="miter" stroke-linecap="butt" stroke-miterlimit="4" stroke-width="0.5079" d="M17.016 9.397c0 1.122-0.91 2.032-2.032 2.032s-2.032-0.91-2.032-2.032c0-1.122 0.91-2.032 2.032-2.032s2.032 0.91 2.032 2.032z"></path>
<path fill="#fff" style="fill: var(--color1, #fff); stroke: var(--color2, #009eff)" stroke="#009eff" stroke-linejoin="miter" stroke-linecap="butt" stroke-miterlimit="4" stroke-width="0.5079" d="M29.206 23.111c0 1.122-0.91 2.032-2.032 2.032s-2.032-0.91-2.032-2.032c0-1.122 0.91-2.032 2.032-2.032s2.032 0.91 2.032 2.032z"></path>
</symbol>
</symbol></defs>
</svg>
