<svg aria-hidden="true" style="position: absolute; width: 0; height: 0; overflow: hidden;" version="1.1" xmlns="http://www.w3.org/2000/svg" xmlns:xlink="http://www.w3.org/1999/xlink">
<defs>
<symbol id="icon-cart_shopping_icon" viewBox="0 0 32 32">
<path stroke-linejoin="round" stroke-linecap="round" stroke-miterlimit="4" stroke-width="2.0416" d="M10.474 30.691c1.446 0 2.618-1.172 2.618-2.618s-1.172-2.618-2.618-2.618v0c-1.446 0-2.618 1.172-2.618 2.618s1.172 2.618 2.618 2.618v0zM26.182 30.691c1.446 0 2.618-1.172 2.618-2.618s-1.172-2.618-2.618-2.618v0c-1.446 0-2.618 1.172-2.618 2.618s1.172 2.618 2.618 2.618v0zM7.424 8.437h22.685l-2.198 10.982c-0.246 1.211-1.302 2.109-2.568 2.109-0.018 0-0.036-0-0.054-0.001l0.003 0h-13.835c-0.006 0-0.013 0-0.021 0-1.326 0-2.423-0.986-2.595-2.265l-0.002-0.014-1.992-15.082c-0.174-1.29-1.268-2.275-2.592-2.277h-2.943"></path>
</symbol>
<symbol id="icon-instagram" viewBox="0 0 32 32">
<path d="M16.315 32h-0.32c-0.139 0.001-0.303 0.001-0.467 0.001-2.325 0-4.634-0.071-6.924-0.212l0.314 0.015c-2.068-0.124-3.954-0.839-5.456-2.064-1.449-1.182-2.439-2.78-2.942-4.75-0.437-1.716-0.462-3.399-0.484-5.026-0.016-1.17-0.032-2.553-0.036-3.961 0.004-1.413 0.020-2.798 0.036-3.964 0.023-1.63 0.046-3.312 0.484-5.028 0.503-1.97 1.493-3.568 2.942-4.75 1.502-1.227 3.388-1.941 5.456-2.066 1.978-0.125 4.289-0.197 6.617-0.197 0.164 0 0.328 0 0.491 0.001l-0.025-0c0.134-0.001 0.293-0.001 0.452-0.001 2.332 0 4.648 0.071 6.945 0.212l-0.315-0.015c2.066 0.126 3.952 0.841 5.454 2.066 1.451 1.182 2.441 2.78 2.942 4.75 0.437 1.714 0.462 3.397 0.484 5.026 0.018 1.168 0.032 2.553 0.036 3.961v0.005c-0.004 1.408-0.018 2.791-0.036 3.961-0.021 1.627-0.044 3.31-0.484 5.026-0.501 1.97-1.493 3.568-2.942 4.75-1.502 1.227-3.388 1.938-5.454 2.066-2.158 0.13-4.377 0.196-6.768 0.196zM15.995 29.5c0.14 0.001 0.306 0.001 0.472 0.001 2.274 0 4.532-0.069 6.771-0.206l-0.307 0.015c1.564-0.094 2.917-0.603 4.028-1.508 1.026-0.836 1.732-1.991 2.098-3.431 0.366-1.428 0.386-2.96 0.407-4.443 0.016-1.159 0.032-2.533 0.036-3.929-0.004-1.394-0.020-2.768-0.036-3.929-0.021-1.481-0.041-3.015-0.405-4.443-0.368-1.44-1.074-2.594-2.1-3.431-1.111-0.903-2.466-1.412-4.028-1.506-1.931-0.122-4.188-0.191-6.461-0.191-0.164 0-0.328 0-0.492 0.001l0.025-0c-0.143-0.001-0.311-0.001-0.48-0.001-2.27 0-4.524 0.069-6.76 0.206l0.307-0.015c-1.563 0.094-2.917 0.603-4.027 1.506-1.026 0.837-1.733 1.991-2.1 3.431-0.364 1.428-0.386 2.96-0.407 4.444-0.014 1.161-0.032 2.535-0.036 3.931 0.004 1.388 0.021 2.764 0.036 3.925 0.021 1.483 0.043 3.015 0.407 4.444 0.366 1.44 1.074 2.592 2.098 3.431 1.111 0.903 2.466 1.41 4.028 1.506 2.201 0.133 4.468 0.196 6.928 0.19zM15.936 23.812c-4.312-0.006-7.806-3.5-7.812-7.811v-0.001c0.006-4.312 3.5-7.806 7.811-7.812h0.001c4.313 0.004 7.809 3.499 7.815 7.811v0.001c-0.005 4.313-3.5 7.808-7.813 7.813h-0zM15.936 10.688c-2.932 0.004-5.308 2.38-5.312 5.312v0c0.003 2.933 2.379 5.31 5.312 5.314h0c2.934-0.003 5.311-2.38 5.314-5.314v-0c-0.004-2.933-2.381-5.309-5.314-5.312h-0zM24.624 5.689c-0.017-0.001-0.037-0.001-0.058-0.001-1.036 0-1.876 0.84-1.876 1.876s0.84 1.876 1.876 1.876c0.020 0 0.041-0 0.061-0.001l-0.003 0c1.036 0 1.876-0.84 1.876-1.876s-0.84-1.876-1.876-1.876v0z"></path>
</symbol>
<symbol id="icon-tel" viewBox="0 0 32 32">
<path stroke-linejoin="miter" stroke-linecap="butt" stroke-miterlimit="4" stroke-width="2.4" d="M7.437 20.744c2.771 3.305 6.168 5.986 10.022 7.882l0.18 0.080c1.491 0.704 3.486 1.539 5.709 1.683 0.138 0.005 0.269 0.011 0.406 0.011 1.491 0 2.69-0.512 3.666-1.568 0.006-0.008 0.019-0.019 0.024-0.032 0.347-0.416 0.744-0.794 1.157-1.192 0.293-0.278 0.568-0.551 0.838-0.829l0.007-0.007c1.275-1.325 1.275-3.008-0.013-4.29l-3.6-3.587c-0.611-0.632-1.341-0.966-2.109-0.966-0.766 0-1.504 0.334-2.131 0.96l-2.144 2.136c-0.198-0.112-0.403-0.214-0.594-0.31-0.266-0.127-0.482-0.246-0.691-0.375l0.032 0.018c-1.952-1.235-3.726-2.848-5.422-4.918-0.856-1.080-1.43-1.987-1.832-2.912 0.563-0.507 1.090-1.038 1.6-1.557 0.179-0.186 0.365-0.37 0.55-0.555 0.646-0.645 0.994-1.392 0.994-2.149 0-0.758-0.341-1.504-0.994-2.149l-1.786-1.778c-0.208-0.208-0.406-0.411-0.611-0.621-0.396-0.411-0.792-0.803-1.198-1.184l-0.018-0.016c-0.614-0.602-1.341-0.918-2.109-0.918-0.76 0-1.491 0.317-2.131 0.925l-2.24 2.232c-0.774 0.754-1.283 1.778-1.372 2.92l-0.001 0.016c-0.114 1.427 0.15 2.942 0.832 4.774 1.050 2.835 2.63 5.467 4.979 8.277z"></path>
</symbol>
<symbol id="icon-menu" viewBox="0 0 48 32"><path d="M0 5.334v-5.334h48v5.334h-48zM0 18.666h48v-5.332h-48v5.332zM0 32h48v-5.334h-48v5.334z"></path></symbol>
</defs>
</svg>
